<svg width="1192" height="453" viewBox="0 0 1192 453" fill="none" xmlns="http://www.w3.org/2000/svg">
<rect x="594.13" y="0.14913" width="596.83" height="452.461" rx="35.6421" fill="white" stroke="#989898" stroke-width="0.29826"/>
<mask id="path-2-outside-1_331_1491" maskUnits="userSpaceOnUse" x="1122.8" y="148.014" width="30" height="158" fill="black">
<rect fill="white" x="1122.8" y="148.014" width="30" height="158"/>
<path d="M1151.8 293.026L1124.03 288.471V284.675L1151.8 289.23V293.026ZM1144.64 305.54L1140.84 304.902V283.536L1144.64 284.173V305.54ZM1151.8 302.788L1124.03 298.232V294.436L1151.8 298.991V302.788ZM1134.99 303.926L1131.19 303.303V281.936L1134.99 282.56V303.926ZM1151.8 278.706H1124.03V260.919H1128.25V273.677H1135.79V262.139H1140V273.677H1151.8V278.706ZM1151.8 256.337H1124.03V238.55H1128.25V251.307H1135.79V239.77H1140V251.307H1151.8V256.337ZM1151.8 233.967H1124.03V216.18H1128.25V228.938H1135.79V217.4H1140V228.938H1151.8V233.967ZM1151.8 211.598H1124.03V193.811H1128.25V206.568H1135.79V195.031H1140V206.568H1151.8V211.598ZM1151.8 189.228H1124.03V171.441H1128.25V184.199H1135.79V172.661H1140V184.199H1151.8V189.228ZM1151.8 166.859H1124.03V149.072H1128.25V161.829H1135.79V150.292H1140V161.829H1151.8V166.859Z"/>
</mask>
<path d="M1151.8 293.026L1124.03 288.471V284.675L1151.8 289.23V293.026ZM1144.64 305.54L1140.84 304.902V283.536L1144.64 284.173V305.54ZM1151.8 302.788L1124.03 298.232V294.436L1151.8 298.991V302.788ZM1134.99 303.926L1131.19 303.303V281.936L1134.99 282.56V303.926ZM1151.8 278.706H1124.03V260.919H1128.25V273.677H1135.79V262.139H1140V273.677H1151.8V278.706ZM1151.8 256.337H1124.03V238.55H1128.25V251.307H1135.79V239.77H1140V251.307H1151.8V256.337ZM1151.8 233.967H1124.03V216.18H1128.25V228.938H1135.79V217.4H1140V228.938H1151.8V233.967ZM1151.8 211.598H1124.03V193.811H1128.25V206.568H1135.79V195.031H1140V206.568H1151.8V211.598ZM1151.8 189.228H1124.03V171.441H1128.25V184.199H1135.79V172.661H1140V184.199H1151.8V189.228ZM1151.8 166.859H1124.03V149.072H1128.25V161.829H1135.79V150.292H1140V161.829H1151.8V166.859Z" fill="#4E4E4E"/>
<path d="M1151.8 293.026L1151.75 293.321L1152.1 293.377V293.026H1151.8ZM1124.03 288.471H1123.73V288.724L1123.98 288.765L1124.03 288.471ZM1124.03 284.675L1124.08 284.381L1123.73 284.324V284.675H1124.03ZM1151.8 289.23H1152.1V288.977L1151.85 288.936L1151.8 289.23ZM1144.64 305.54L1144.59 305.834L1144.94 305.892V305.54H1144.64ZM1140.84 304.902H1140.54V305.155L1140.79 305.197L1140.84 304.902ZM1140.84 283.536L1140.89 283.242L1140.54 283.184V283.536H1140.84ZM1144.64 284.173H1144.94V283.921L1144.69 283.879L1144.64 284.173ZM1151.8 302.788L1151.75 303.082L1152.1 303.139V302.788H1151.8ZM1124.03 298.232H1123.73V298.486L1123.98 298.527L1124.03 298.232ZM1124.03 294.436L1124.08 294.142L1123.73 294.085V294.436H1124.03ZM1151.8 298.991H1152.1V298.738L1151.85 298.697L1151.8 298.991ZM1134.99 303.926L1134.94 304.221L1135.28 304.278V303.926H1134.99ZM1131.19 303.303H1130.89V303.556L1131.14 303.597L1131.19 303.303ZM1131.19 281.936L1131.24 281.642L1130.89 281.585V281.936H1131.19ZM1134.99 282.56H1135.28V282.307L1135.03 282.266L1134.99 282.56ZM1151.8 293.026L1151.85 292.732L1124.08 288.177L1124.03 288.471L1123.98 288.765L1151.75 293.321L1151.8 293.026ZM1124.03 288.471H1124.33V284.675H1124.03H1123.73V288.471H1124.03ZM1124.03 284.675L1123.98 284.969L1151.75 289.525L1151.8 289.23L1151.85 288.936L1124.08 284.381L1124.03 284.675ZM1151.8 289.23H1151.5V293.026H1151.8H1152.1V289.23H1151.8ZM1144.64 305.54L1144.69 305.246L1140.89 304.608L1140.84 304.902L1140.79 305.197L1144.59 305.834L1144.64 305.54ZM1140.84 304.902H1141.14V283.536H1140.84H1140.54V304.902H1140.84ZM1140.84 283.536L1140.79 283.83L1144.59 284.468L1144.64 284.173L1144.69 283.879L1140.89 283.242L1140.84 283.536ZM1144.64 284.173H1144.34V305.54H1144.64H1144.94V284.173H1144.64ZM1151.8 302.788L1151.85 302.493L1124.08 297.938L1124.03 298.232L1123.98 298.527L1151.75 303.082L1151.8 302.788ZM1124.03 298.232H1124.33V294.436H1124.03H1123.73V298.232H1124.03ZM1124.03 294.436L1123.98 294.731L1151.75 299.286L1151.8 298.991L1151.85 298.697L1124.08 294.142L1124.03 294.436ZM1151.8 298.991H1151.5V302.788H1151.8H1152.1V298.991H1151.8ZM1134.99 303.926L1135.03 303.632L1131.24 303.008L1131.19 303.303L1131.14 303.597L1134.94 304.221L1134.99 303.926ZM1131.19 303.303H1131.49V281.936H1131.19H1130.89V303.303H1131.19ZM1131.19 281.936L1131.14 282.231L1134.94 282.854L1134.99 282.56L1135.03 282.266L1131.24 281.642L1131.19 281.936ZM1134.99 282.56H1134.69V303.926H1134.99H1135.28V282.56H1134.99ZM1151.8 278.706V279.005H1152.1V278.706H1151.8ZM1124.03 278.706H1123.73V279.005H1124.03V278.706ZM1124.03 260.919V260.621H1123.73V260.919H1124.03ZM1128.25 260.919H1128.55V260.621H1128.25V260.919ZM1128.25 273.677H1127.95V273.975H1128.25V273.677ZM1135.79 273.677V273.975H1136.08V273.677H1135.79ZM1135.79 262.139V261.841H1135.49V262.139H1135.79ZM1140 262.139H1140.3V261.841H1140V262.139ZM1140 273.677H1139.7V273.975H1140V273.677ZM1151.8 273.677H1152.1V273.378H1151.8V273.677ZM1151.8 278.706V278.408H1124.03V278.706V279.005H1151.8V278.706ZM1124.03 278.706H1124.33V260.919H1124.03H1123.73V278.706H1124.03ZM1124.03 260.919V261.218H1128.25V260.919V260.621H1124.03V260.919ZM1128.25 260.919H1127.95V273.677H1128.25H1128.55V260.919H1128.25ZM1128.25 273.677V273.975H1135.79V273.677V273.378H1128.25V273.677ZM1135.79 273.677H1136.08V262.139H1135.79H1135.49V273.677H1135.79ZM1135.79 262.139V262.438H1140V262.139V261.841H1135.79V262.139ZM1140 262.139H1139.7V273.677H1140H1140.3V262.139H1140ZM1140 273.677V273.975H1151.8V273.677V273.378H1140V273.677ZM1151.8 273.677H1151.5V278.706H1151.8H1152.1V273.677H1151.8ZM1151.8 256.337V256.635H1152.1V256.337H1151.8ZM1124.03 256.337H1123.73V256.635H1124.03V256.337ZM1124.03 238.55V238.251H1123.73V238.55H1124.03ZM1128.25 238.55H1128.55V238.251H1128.25V238.55ZM1128.25 251.307H1127.95V251.605H1128.25V251.307ZM1135.79 251.307V251.605H1136.08V251.307H1135.79ZM1135.79 239.77V239.472H1135.49V239.77H1135.79ZM1140 239.77H1140.3V239.472H1140V239.77ZM1140 251.307H1139.7V251.605H1140V251.307ZM1151.8 251.307H1152.1V251.009H1151.8V251.307ZM1151.8 256.337V256.039H1124.03V256.337V256.635H1151.8V256.337ZM1124.03 256.337H1124.33V238.55H1124.03H1123.73V256.337H1124.03ZM1124.03 238.55V238.848H1128.25V238.55V238.251H1124.03V238.55ZM1128.25 238.55H1127.95V251.307H1128.25H1128.55V238.55H1128.25ZM1128.25 251.307V251.605H1135.79V251.307V251.009H1128.25V251.307ZM1135.79 251.307H1136.08V239.77H1135.79H1135.49V251.307H1135.79ZM1135.79 239.77V240.068H1140V239.77V239.472H1135.79V239.77ZM1140 239.77H1139.7V251.307H1140H1140.3V239.77H1140ZM1140 251.307V251.605H1151.8V251.307V251.009H1140V251.307ZM1151.8 251.307H1151.5V256.337H1151.8H1152.1V251.307H1151.8ZM1151.8 233.967V234.266H1152.1V233.967H1151.8ZM1124.03 233.967H1123.73V234.266H1124.03V233.967ZM1124.03 216.18V215.882H1123.73V216.18H1124.03ZM1128.25 216.18H1128.55V215.882H1128.25V216.18ZM1128.25 228.938H1127.95V229.236H1128.25V228.938ZM1135.79 228.938V229.236H1136.08V228.938H1135.79ZM1135.79 217.4V217.102H1135.49V217.4H1135.79ZM1140 217.4H1140.3V217.102H1140V217.4ZM1140 228.938H1139.7V229.236H1140V228.938ZM1151.8 228.938H1152.1V228.639H1151.8V228.938ZM1151.8 233.967V233.669H1124.03V233.967V234.266H1151.8V233.967ZM1124.03 233.967H1124.33V216.18H1124.03H1123.73V233.967H1124.03ZM1124.03 216.18V216.479H1128.25V216.18V215.882H1124.03V216.18ZM1128.25 216.18H1127.95V228.938H1128.25H1128.55V216.18H1128.25ZM1128.25 228.938V229.236H1135.79V228.938V228.639H1128.25V228.938ZM1135.79 228.938H1136.08V217.4H1135.79H1135.49V228.938H1135.79ZM1135.79 217.4V217.699H1140V217.4V217.102H1135.79V217.4ZM1140 217.4H1139.7V228.938H1140H1140.3V217.4H1140ZM1140 228.938V229.236H1151.8V228.938V228.639H1140V228.938ZM1151.8 228.938H1151.5V233.967H1151.8H1152.1V228.938H1151.8ZM1151.8 211.598V211.896H1152.1V211.598H1151.8ZM1124.03 211.598H1123.73V211.896H1124.03V211.598ZM1124.03 193.811V193.512H1123.73V193.811H1124.03ZM1128.25 193.811H1128.55V193.512H1128.25V193.811ZM1128.25 206.568H1127.95V206.866H1128.25V206.568ZM1135.79 206.568V206.866H1136.08V206.568H1135.79ZM1135.79 195.031V194.733H1135.49V195.031H1135.79ZM1140 195.031H1140.3V194.733H1140V195.031ZM1140 206.568H1139.7V206.866H1140V206.568ZM1151.8 206.568H1152.1V206.27H1151.8V206.568ZM1151.8 211.598V211.3H1124.03V211.598V211.896H1151.8V211.598ZM1124.03 211.598H1124.33V193.811H1124.03H1123.73V211.598H1124.03ZM1124.03 193.811V194.109H1128.25V193.811V193.512H1124.03V193.811ZM1128.25 193.811H1127.95V206.568H1128.25H1128.55V193.811H1128.25ZM1128.25 206.568V206.866H1135.79V206.568V206.27H1128.25V206.568ZM1135.79 206.568H1136.08V195.031H1135.79H1135.49V206.568H1135.79ZM1135.79 195.031V195.329H1140V195.031V194.733H1135.79V195.031ZM1140 195.031H1139.7V206.568H1140H1140.3V195.031H1140ZM1140 206.568V206.866H1151.8V206.568V206.27H1140V206.568ZM1151.8 206.568H1151.5V211.598H1151.8H1152.1V206.568H1151.8ZM1151.8 189.228V189.527H1152.1V189.228H1151.8ZM1124.03 189.228H1123.73V189.527H1124.03V189.228ZM1124.03 171.441V171.143H1123.73V171.441H1124.03ZM1128.25 171.441H1128.55V171.143H1128.25V171.441ZM1128.25 184.199H1127.95V184.497H1128.25V184.199ZM1135.79 184.199V184.497H1136.08V184.199H1135.79ZM1135.79 172.661V172.363H1135.49V172.661H1135.79ZM1140 172.661H1140.3V172.363H1140V172.661ZM1140 184.199H1139.7V184.497H1140V184.199ZM1151.8 184.199H1152.1V183.9H1151.8V184.199ZM1151.8 189.228V188.93H1124.03V189.228V189.527H1151.8V189.228ZM1124.03 189.228H1124.33V171.441H1124.03H1123.73V189.228H1124.03ZM1124.03 171.441V171.739H1128.25V171.441V171.143H1124.03V171.441ZM1128.25 171.441H1127.95V184.199H1128.25H1128.55V171.441H1128.25ZM1128.25 184.199V184.497H1135.79V184.199V183.9H1128.25V184.199ZM1135.79 184.199H1136.08V172.661H1135.79H1135.49V184.199H1135.79ZM1135.79 172.661V172.96H1140V172.661V172.363H1135.79V172.661ZM1140 172.661H1139.7V184.199H1140H1140.3V172.661H1140ZM1140 184.199V184.497H1151.8V184.199V183.9H1140V184.199ZM1151.8 184.199H1151.5V189.228H1151.8H1152.1V184.199H1151.8ZM1151.8 166.859V167.157H1152.1V166.859H1151.8ZM1124.03 166.859H1123.73V167.157H1124.03V166.859ZM1124.03 149.072V148.773H1123.73V149.072H1124.03ZM1128.25 149.072H1128.55V148.773H1128.25V149.072ZM1128.25 161.829H1127.95V162.127H1128.25V161.829ZM1135.79 161.829V162.127H1136.08V161.829H1135.79ZM1135.79 150.292V149.994H1135.49V150.292H1135.79ZM1140 150.292H1140.3V149.994H1140V150.292ZM1140 161.829H1139.7V162.127H1140V161.829ZM1151.8 161.829H1152.1V161.531H1151.8V161.829ZM1151.8 166.859V166.561H1124.03V166.859V167.157H1151.8V166.859ZM1124.03 166.859H1124.33V149.072H1124.03H1123.73V166.859H1124.03ZM1124.03 149.072V149.37H1128.25V149.072V148.773H1124.03V149.072ZM1128.25 149.072H1127.95V161.829H1128.25H1128.55V149.072H1128.25ZM1128.25 161.829V162.127H1135.79V161.829V161.531H1128.25V161.829ZM1135.79 161.829H1136.08V150.292H1135.79H1135.49V161.829H1135.79ZM1135.79 150.292V150.59H1140V150.292V149.994H1135.79V150.292ZM1140 150.292H1139.7V161.829H1140H1140.3V150.292H1140ZM1140 161.829V162.127H1151.8V161.829V161.531H1140V161.829ZM1151.8 161.829H1151.5V166.859H1151.8H1152.1V161.829H1151.8Z" fill="#989898" mask="url(#path-2-outside-1_331_1491)"/>
<rect x="420.111" width="597.128" height="452.759" rx="35.7912" fill="#EEEEEE"/>
<path d="M977.928 295.412L950.162 290.857V287.061L977.928 291.616V295.412ZM970.769 307.925L966.973 307.288V285.922L970.769 286.559V307.925ZM977.928 305.173L950.162 300.618V296.822L977.928 301.377V305.173ZM961.117 306.312L957.321 305.688V284.322L961.117 284.946V306.312ZM977.928 281.092H950.162V263.034H954.379V276.062H961.917V263.969H966.133V276.062H973.711V262.925H977.928V281.092ZM977.928 257.902H950.162V239.844H954.379V252.873H961.917V240.78H966.133V252.873H973.711V239.736H977.928V257.902ZM977.928 234.713H950.162V216.654H954.379V229.683H961.917V217.59H966.133V229.683H973.711V216.546H977.928V234.713ZM977.928 211.523H950.162V193.465H954.379V206.493H961.917V194.4H966.133V206.493H973.711V193.356H977.928V211.523ZM977.928 188.333H950.162V170.275H954.379V183.303H961.917V171.21H966.133V183.303H973.711V170.166H977.928V188.333ZM977.928 165.144H950.162V147.085H954.379V160.114H961.917V148.021H966.133V160.114H973.711V146.977H977.928V165.144Z" fill="#767676"/>
<rect x="247.818" width="597.128" height="452.759" rx="35.7912" fill="#ABC2FE"/>
<path d="M805.635 301.379L777.869 296.824V293.028L805.635 297.583V301.379ZM798.477 313.893L794.68 313.255V291.889L798.477 292.526V313.893ZM805.635 311.141L777.869 306.585V302.789L805.635 307.345V311.141ZM788.824 312.279L785.028 311.656V290.289L788.824 290.913V312.279ZM805.635 283.494V288.863L777.869 279.088V272.879L805.635 263.09V268.459L783.564 275.875V276.092L805.635 283.494ZM794.748 283.318V268.676H798.788V283.318H794.748ZM805.635 259.433H777.869V248.804C777.869 246.798 778.186 245.13 778.818 243.802C779.442 242.464 780.296 241.465 781.381 240.805C782.465 240.137 783.695 239.802 785.068 239.802C786.198 239.802 787.165 240.019 787.97 240.453C788.765 240.887 789.411 241.47 789.908 242.202C790.405 242.934 790.762 243.752 790.979 244.656H791.25C791.305 243.67 791.607 242.726 792.159 241.822C792.701 240.909 793.469 240.164 794.464 239.585C795.458 239.007 796.66 238.718 798.07 238.718C799.507 238.718 800.799 239.066 801.947 239.761C803.086 240.457 803.985 241.506 804.645 242.907C805.305 244.308 805.635 246.07 805.635 248.194V259.433ZM801.432 254.403V248.994C801.432 247.168 801.084 245.853 800.388 245.049C799.683 244.235 798.779 243.829 797.677 243.829C796.854 243.829 796.113 244.032 795.453 244.439C794.784 244.845 794.26 245.424 793.881 246.174C793.492 246.924 793.298 247.819 793.298 248.858V254.403H801.432ZM789.678 254.403V249.428C789.678 248.56 789.52 247.778 789.203 247.082C788.878 246.386 788.422 245.84 787.834 245.442C787.238 245.035 786.533 244.832 785.719 244.832C784.644 244.832 783.758 245.212 783.062 245.971C782.366 246.721 782.018 247.837 782.018 249.319V254.403H789.678ZM787.238 210.576V215.646C786.406 215.791 785.669 216.058 785.028 216.446C784.377 216.835 783.826 217.319 783.374 217.897C782.922 218.475 782.583 219.135 782.357 219.876C782.122 220.608 782.004 221.399 782.004 222.249C782.004 223.758 782.384 225.096 783.143 226.262C783.893 227.428 784.996 228.341 786.451 229C787.897 229.66 789.664 229.99 791.752 229.99C793.876 229.99 795.666 229.66 797.121 229C798.567 228.332 799.661 227.419 800.402 226.262C801.134 225.096 801.5 223.763 801.5 222.262C801.5 221.431 801.391 220.654 801.174 219.931C800.948 219.198 800.619 218.543 800.185 217.965C799.751 217.377 799.218 216.885 798.585 216.487C797.952 216.08 797.229 215.8 796.416 215.646L796.443 210.576C797.763 210.766 799.001 211.177 800.158 211.81C801.315 212.433 802.336 213.251 803.222 214.264C804.098 215.276 804.785 216.46 805.282 217.816C805.77 219.171 806.014 220.676 806.014 222.33C806.014 224.771 805.449 226.949 804.32 228.865C803.19 230.781 801.559 232.29 799.426 233.393C797.293 234.496 794.735 235.047 791.752 235.047C788.76 235.047 786.203 234.491 784.079 233.379C781.946 232.268 780.314 230.754 779.185 228.838C778.055 226.922 777.49 224.752 777.49 222.33C777.49 220.785 777.707 219.348 778.141 218.019C778.574 216.69 779.212 215.506 780.052 214.467C780.884 213.428 781.905 212.573 783.116 211.905C784.318 211.227 785.692 210.784 787.238 210.576ZM805.635 206.241H802.001L792.552 196.602C791.621 195.68 790.794 194.912 790.071 194.297C789.348 193.683 788.647 193.222 787.97 192.914C787.292 192.607 786.569 192.453 785.8 192.453C784.924 192.453 784.174 192.652 783.55 193.05C782.917 193.448 782.429 193.994 782.086 194.69C781.742 195.386 781.571 196.177 781.571 197.063C781.571 197.976 781.76 198.776 782.14 199.462C782.511 200.149 783.039 200.683 783.726 201.062C784.413 201.433 785.231 201.618 786.18 201.618V206.404C784.418 206.404 782.886 206.002 781.584 205.197C780.283 204.393 779.275 203.286 778.561 201.876C777.847 200.457 777.49 198.83 777.49 196.995C777.49 195.133 777.838 193.497 778.534 192.087C779.23 190.677 780.183 189.584 781.394 188.806C782.605 188.02 783.988 187.627 785.543 187.627C786.582 187.627 787.604 187.826 788.607 188.223C789.61 188.621 790.722 189.322 791.942 190.325C793.162 191.319 794.64 192.715 796.375 194.514L801.242 199.3H801.432V187.207H805.635V206.241ZM805.635 182.258H777.869V164.471H782.086V177.229H789.624V165.691H793.84V177.229H805.635V182.258ZM805.635 159.889H777.869V141.83H782.086V154.859H789.624V142.766H793.84V154.859H801.418V141.722H805.635V159.889Z" fill="#575757"/>
<rect width="597.128" height="452.759" rx="35.7912" fill="#1A59FF"/>
<path d="M557.816 300.184L530.051 295.629V291.833L557.816 296.388V300.184ZM550.658 312.697L546.862 312.06V290.694L550.658 291.331V312.697ZM557.816 309.945L530.051 305.39V301.594L557.816 306.149V309.945ZM541.005 311.084L537.209 310.46V289.094L541.005 289.718V311.084ZM530.051 274.842H557.816V279.872H534.945V280.034L539.094 286.528H534.484L530.051 279.628V274.842ZM557.816 263.956V269.324L530.051 259.549V253.34L557.816 243.552V248.921L535.745 256.336V256.553L557.816 263.956ZM546.93 263.779V249.137H550.97V263.779H546.93ZM558.196 230.513C558.196 232.321 557.857 233.939 557.179 235.367C556.492 236.795 555.552 237.929 554.359 238.77C553.166 239.601 551.801 240.044 550.265 240.098V235.218C551.404 235.127 552.335 234.635 553.058 233.74C553.772 232.845 554.129 231.769 554.129 230.513C554.129 229.528 553.903 228.651 553.451 227.883C552.999 227.115 552.371 226.509 551.567 226.066C550.762 225.623 549.845 225.407 548.814 225.416C547.766 225.407 546.835 225.628 546.022 226.08C545.208 226.532 544.571 227.151 544.11 227.937C543.64 228.724 543.405 229.627 543.405 230.649C543.396 231.48 543.55 232.298 543.866 233.103C544.182 233.907 544.598 234.544 545.113 235.014L544.368 239.556L530.051 238.105V221.999H534.254V233.943L541.615 234.743V234.58C541.01 234.065 540.508 233.338 540.111 232.398C539.704 231.458 539.501 230.427 539.501 229.307C539.501 227.625 539.898 226.125 540.694 224.806C541.48 223.486 542.564 222.447 543.947 221.687C545.33 220.928 546.912 220.549 548.692 220.549C550.527 220.549 552.163 220.973 553.6 221.823C555.028 222.663 556.153 223.834 556.976 225.334C557.789 226.826 558.196 228.552 558.196 230.513ZM529.671 206.368C529.681 205.039 529.916 203.747 530.376 202.49C530.828 201.225 531.57 200.086 532.6 199.074C533.621 198.062 534.99 197.257 536.708 196.661C538.425 196.064 540.549 195.766 543.08 195.766C545.466 195.757 547.599 196.01 549.479 196.525C551.35 197.031 552.931 197.759 554.224 198.708C555.516 199.657 556.501 200.8 557.179 202.138C557.857 203.475 558.196 204.98 558.196 206.652C558.196 208.406 557.853 209.96 557.166 211.316C556.479 212.663 555.539 213.752 554.346 214.583C553.153 215.415 551.788 215.926 550.251 216.115V211.167C551.354 210.914 552.231 210.399 552.882 209.621C553.523 208.835 553.844 207.845 553.844 206.652C553.844 204.727 553.008 203.245 551.336 202.206C549.664 201.166 547.341 200.646 544.368 200.646V200.836C545.163 201.279 545.85 201.853 546.428 202.558C546.998 203.263 547.436 204.063 547.743 204.958C548.051 205.843 548.204 206.783 548.204 207.778C548.204 209.404 547.816 210.869 547.038 212.17C546.261 213.463 545.195 214.488 543.839 215.248C542.483 215.998 540.933 216.377 539.189 216.386C537.381 216.386 535.759 215.971 534.322 215.139C532.876 214.299 531.737 213.128 530.905 211.628C530.065 210.128 529.653 208.374 529.671 206.368ZM533.739 206.354C533.739 207.33 533.978 208.211 534.457 208.998C534.927 209.775 535.569 210.39 536.382 210.842C537.187 211.284 538.086 211.506 539.08 211.506C540.065 211.497 540.96 211.275 541.765 210.842C542.569 210.399 543.206 209.798 543.676 209.038C544.146 208.27 544.381 207.393 544.381 206.408C544.381 205.676 544.241 204.994 543.961 204.361C543.681 203.728 543.292 203.177 542.795 202.707C542.289 202.228 541.715 201.858 541.073 201.595C540.431 201.324 539.754 201.193 539.04 201.202C538.091 201.202 537.214 201.428 536.409 201.88C535.605 202.323 534.959 202.933 534.471 203.71C533.983 204.479 533.739 205.36 533.739 206.354ZM557.816 190.98H530.051V173.193H534.267V185.95H541.805V174.413H546.022V185.95H557.816V190.98ZM557.816 168.611H530.051V150.823H534.267V163.581H541.805V152.044H546.022V163.581H557.816V168.611Z" fill="white"/>
</svg>
