<svg width="681" height="213" viewBox="0 0 681 213" fill="none" xmlns="http://www.w3.org/2000/svg">
<rect width="310.548" height="212.361" rx="17.8956" fill="white"/>
<path d="M45.3403 92.1014C44.7251 92.1014 44.1633 91.9514 43.6549 91.6515C43.1465 91.3464 42.7398 90.9397 42.4348 90.4313C42.1348 89.9229 41.9849 89.3611 41.9849 88.746C41.9849 88.1257 42.1348 87.5639 42.4348 87.0606C42.7398 86.5522 43.1465 86.148 43.6549 85.8481C44.1633 85.5431 44.7251 85.3905 45.3403 85.3905C45.9605 85.3905 46.5223 85.5431 47.0256 85.8481C47.534 86.148 47.9382 86.5522 48.2382 87.0606C48.5432 87.5639 48.6957 88.1257 48.6957 88.746C48.6957 89.3611 48.5432 89.9229 48.2382 90.4313C47.9382 90.9397 47.534 91.3464 47.0256 91.6515C46.5223 91.9514 45.9605 92.1014 45.3403 92.1014ZM63.1565 94.9688V79.3508H65.5129V92.9402H72.5898V94.9688H63.1565ZM80.0289 95.2052C78.9308 95.2052 77.9724 94.9535 77.1539 94.4502C76.3354 93.9469 75.6999 93.2427 75.2474 92.3378C74.795 91.4328 74.5687 90.3754 74.5687 89.1654C74.5687 87.9503 74.795 86.8878 75.2474 85.9777C75.6999 85.0677 76.3354 84.361 77.1539 83.8577C77.9724 83.3544 78.9308 83.1027 80.0289 83.1027C81.1271 83.1027 82.0854 83.3544 82.9039 83.8577C83.7224 84.361 84.3579 85.0677 84.8104 85.9777C85.2629 86.8878 85.4891 87.9503 85.4891 89.1654C85.4891 90.3754 85.2629 91.4328 84.8104 92.3378C84.3579 93.2427 83.7224 93.9469 82.9039 94.4502C82.0854 94.9535 81.1271 95.2052 80.0289 95.2052ZM80.0365 93.291C80.7483 93.291 81.338 93.1029 81.8058 92.7267C82.2735 92.3505 82.6192 91.8497 82.8429 91.2244C83.0717 90.5991 83.1861 89.9102 83.1861 89.1578C83.1861 88.4104 83.0717 87.7241 82.8429 87.0987C82.6192 86.4683 82.2735 85.9625 81.8058 85.5812C81.338 85.1999 80.7483 85.0092 80.0365 85.0092C79.3197 85.0092 78.7249 85.1999 78.2521 85.5812C77.7843 85.9625 77.4361 86.4683 77.2073 87.0987C76.9836 87.7241 76.8718 88.4104 76.8718 89.1578C76.8718 89.9102 76.9836 90.5991 77.2073 91.2244C77.4361 91.8497 77.7843 92.3505 78.2521 92.7267C78.7249 93.1029 79.3197 93.291 80.0365 93.291ZM90.2172 94.9688L86.7703 83.2553H89.1267L91.4221 91.8574H91.5365L93.8395 83.2553H96.196L98.4838 91.8192H98.5982L100.878 83.2553H103.235L99.7954 94.9688H97.4695L95.0902 86.5115H94.9148L92.5355 94.9688H90.2172ZM112.3 87.3809V89.356H105.376V87.3809H112.3ZM120.914 83.2553V85.0855H114.294V83.2553H120.914ZM116.109 94.9688V81.8978C116.109 81.1657 116.269 80.5582 116.59 80.0752C116.91 79.5872 117.335 79.2237 117.863 78.9847C118.392 78.7407 118.966 78.6187 119.587 78.6187C120.044 78.6187 120.436 78.6568 120.761 78.7331C121.087 78.8042 121.328 78.8703 121.486 78.9313L120.952 80.7768C120.845 80.7463 120.708 80.7107 120.54 80.6701C120.372 80.6243 120.169 80.6014 119.93 80.6014C119.376 80.6014 118.979 80.7387 118.74 81.0132C118.506 81.2878 118.389 81.6843 118.389 82.2029V94.9688H116.109ZM123.266 94.9688V83.2553H125.546V94.9688H123.266ZM124.418 81.4479C124.021 81.4479 123.681 81.3157 123.396 81.0514C123.116 80.7819 122.976 80.4616 122.976 80.0905C122.976 79.7143 123.116 79.394 123.396 79.1296C123.681 78.8602 124.021 78.7254 124.418 78.7254C124.814 78.7254 125.152 78.8602 125.432 79.1296C125.717 79.394 125.859 79.7143 125.859 80.0905C125.859 80.4616 125.717 80.7819 125.432 81.0514C125.152 81.3157 124.814 81.4479 124.418 81.4479ZM132.999 95.1975C132.053 95.1975 131.209 94.956 130.467 94.4731C129.73 93.985 129.15 93.291 128.728 92.3912C128.311 91.4862 128.103 90.4008 128.103 89.1349C128.103 87.869 128.314 86.7861 128.736 85.8862C129.163 84.9864 129.748 84.2975 130.49 83.8196C131.232 83.3417 132.074 83.1027 133.014 83.1027C133.741 83.1027 134.326 83.2248 134.768 83.4688C135.216 83.7077 135.561 83.9874 135.805 84.3076C136.054 84.6279 136.248 84.9101 136.385 85.1541H136.522V79.3508H138.802V94.9688H136.575V93.1461H136.385C136.248 93.3953 136.049 93.68 135.79 94.0003C135.536 94.3205 135.185 94.6002 134.738 94.8391C134.29 95.0781 133.711 95.1975 132.999 95.1975ZM133.502 93.2529C134.158 93.2529 134.712 93.0801 135.165 92.7343C135.622 92.3835 135.968 91.898 136.202 91.2778C136.441 90.6575 136.56 89.9356 136.56 89.112C136.56 88.2986 136.443 87.5868 136.209 86.9767C135.976 86.3667 135.632 85.8913 135.18 85.5507C134.727 85.2101 134.168 85.0397 133.502 85.0397C132.816 85.0397 132.244 85.2177 131.786 85.5736C131.329 85.9294 130.983 86.415 130.749 87.0301C130.52 87.6453 130.406 88.3392 130.406 89.112C130.406 89.8949 130.523 90.5991 130.757 91.2244C130.991 91.8497 131.336 92.3454 131.794 92.7115C132.257 93.0724 132.826 93.2529 133.502 93.2529ZM147.105 95.2052C145.951 95.2052 144.957 94.9586 144.123 94.4654C143.295 93.9672 142.654 93.2682 142.202 92.3683C141.754 91.4633 141.53 90.4033 141.53 89.1883C141.53 87.9884 141.754 86.931 142.202 86.0159C142.654 85.1007 143.284 84.3864 144.093 83.873C144.906 83.3595 145.857 83.1027 146.945 83.1027C147.606 83.1027 148.246 83.212 148.867 83.4307C149.487 83.6493 150.044 83.9924 150.537 84.4602C151.03 84.9279 151.419 85.5354 151.703 86.2828C151.988 87.025 152.131 87.9274 152.131 88.99V89.7983H142.819V88.0901H149.896C149.896 87.4902 149.774 86.9589 149.53 86.4963C149.286 86.0286 148.943 85.66 148.501 85.3905C148.063 85.1211 147.55 84.9864 146.96 84.9864C146.32 84.9864 145.76 85.144 145.282 85.4592C144.81 85.7693 144.444 86.176 144.184 86.6793C143.93 87.1776 143.803 87.719 143.803 88.3037V89.6382C143.803 90.4211 143.94 91.0871 144.215 91.6362C144.494 92.1853 144.883 92.6047 145.382 92.8945C145.88 93.1792 146.462 93.3215 147.128 93.3215C147.56 93.3215 147.954 93.2605 148.31 93.1385C148.666 93.0114 148.973 92.8233 149.233 92.5742C149.492 92.3251 149.69 92.0175 149.828 91.6515L151.986 92.0404C151.813 92.6759 151.503 93.2326 151.055 93.7105C150.613 94.1833 150.056 94.5519 149.385 94.8162C148.719 95.0755 147.959 95.2052 147.105 95.2052ZM156.941 79.3508V94.9688H154.66V79.3508H156.941ZM160.008 94.9688V83.2553H162.288V94.9688H160.008ZM161.16 81.4479C160.763 81.4479 160.423 81.3157 160.138 81.0514C159.858 80.7819 159.718 80.4616 159.718 80.0905C159.718 79.7143 159.858 79.394 160.138 79.1296C160.423 78.8602 160.763 78.7254 161.16 78.7254C161.556 78.7254 161.894 78.8602 162.174 79.1296C162.459 79.394 162.601 79.7143 162.601 80.0905C162.601 80.4616 162.459 80.7819 162.174 81.0514C161.894 81.3157 161.556 81.4479 161.16 81.4479ZM170.824 83.2553V85.0855H164.426V83.2553H170.824ZM166.141 80.4489H168.422V91.5294C168.422 91.9717 168.488 92.3047 168.62 92.5284C168.752 92.7471 168.922 92.897 169.131 92.9784C169.344 93.0546 169.576 93.0928 169.825 93.0928C170.008 93.0928 170.168 93.0801 170.305 93.0546C170.442 93.0292 170.549 93.0089 170.625 92.9936L171.037 94.8772C170.905 94.9281 170.717 94.9789 170.473 95.0298C170.229 95.0857 169.924 95.1162 169.558 95.1213C168.958 95.1314 168.399 95.0247 167.88 94.801C167.362 94.5773 166.942 94.2316 166.622 93.7638C166.302 93.2961 166.141 92.7089 166.141 92.0022V80.4489ZM174.787 99.3613C174.447 99.3613 174.137 99.3333 173.857 99.2774C173.577 99.2266 173.369 99.1707 173.232 99.1097L173.781 97.2413C174.198 97.3531 174.569 97.4014 174.894 97.3862C175.219 97.3709 175.507 97.2489 175.756 97.0201C176.01 96.7914 176.234 96.4177 176.427 95.8991L176.709 95.1213L172.423 83.2553H174.864L177.83 92.3454H177.952L180.919 83.2553H183.367L178.539 96.5321C178.316 97.1422 178.031 97.6582 177.685 98.0801C177.339 98.5072 176.928 98.8275 176.45 99.041C175.972 99.2545 175.418 99.3613 174.787 99.3613ZM65.5129 120.969L62.0659 109.255H64.4224L66.7178 117.857H66.8322L69.1352 109.255H71.4916L73.7794 117.819H73.8938L76.174 109.255H78.5304L75.0911 120.969H72.7652L70.3859 112.512H70.2105L67.8312 120.969H65.5129ZM80.6943 120.969V109.255H82.9744V120.969H80.6943ZM81.8458 107.448C81.4493 107.448 81.1086 107.316 80.8239 107.051C80.5443 106.782 80.4045 106.462 80.4045 106.09C80.4045 105.714 80.5443 105.394 80.8239 105.13C81.1086 104.86 81.4493 104.725 81.8458 104.725C82.2424 104.725 82.5804 104.86 82.8601 105.13C83.1448 105.394 83.2871 105.714 83.2871 106.09C83.2871 106.462 83.1448 106.782 82.8601 107.051C82.5804 107.316 82.2424 107.448 81.8458 107.448ZM86.042 120.969V109.255H88.2459V111.116H88.3679C88.5814 110.486 88.9577 109.99 89.4966 109.629C90.0405 109.263 90.6557 109.08 91.342 109.08C91.4844 109.08 91.6522 109.085 91.8454 109.095C92.0436 109.105 92.1987 109.118 92.3105 109.133V111.314C92.219 111.289 92.0563 111.261 91.8225 111.23C91.5886 111.195 91.3547 111.177 91.1209 111.177C90.582 111.177 90.1015 111.291 89.6796 111.52C89.2627 111.744 88.9322 112.057 88.6882 112.458C88.4442 112.855 88.3222 113.307 88.3222 113.816V120.969H86.042ZM98.9127 121.205C97.7587 121.205 96.7647 120.959 95.931 120.465C95.1023 119.967 94.4617 119.268 94.0092 118.368C93.5618 117.463 93.3381 116.403 93.3381 115.188C93.3381 113.988 93.5618 112.931 94.0092 112.016C94.4617 111.101 95.0921 110.386 95.9005 109.873C96.7139 109.359 97.6646 109.103 98.7526 109.103C99.4135 109.103 100.054 109.212 100.674 109.431C101.295 109.649 101.851 109.992 102.344 110.46C102.838 110.928 103.226 111.535 103.511 112.283C103.796 113.025 103.938 113.927 103.938 114.99V115.798H94.6269V114.09H101.704C101.704 113.49 101.582 112.959 101.338 112.496C101.094 112.029 100.751 111.66 100.308 111.391C99.8711 111.121 99.3576 110.986 98.7678 110.986C98.1272 110.986 97.568 111.144 97.0901 111.459C96.6173 111.769 96.2513 112.176 95.992 112.679C95.7378 113.178 95.6107 113.719 95.6107 114.304V115.638C95.6107 116.421 95.7479 117.087 96.0225 117.636C96.3021 118.185 96.691 118.605 97.1893 118.894C97.6875 119.179 98.2696 119.322 98.9356 119.322C99.3677 119.322 99.7617 119.261 100.118 119.139C100.474 119.011 100.781 118.823 101.04 118.574C101.3 118.325 101.498 118.017 101.635 117.651L103.793 118.04C103.62 118.676 103.31 119.233 102.863 119.71C102.421 120.183 101.864 120.552 101.193 120.816C100.527 121.076 99.7668 121.205 98.9127 121.205ZM112.043 109.255V111.085H105.423V109.255H112.043ZM107.238 120.969V107.898C107.238 107.166 107.399 106.558 107.719 106.075C108.039 105.587 108.464 105.224 108.992 104.985C109.521 104.741 110.096 104.619 110.716 104.619C111.173 104.619 111.565 104.657 111.89 104.733C112.216 104.804 112.457 104.87 112.615 104.931L112.081 106.777C111.974 106.746 111.837 106.711 111.669 106.67C111.501 106.624 111.298 106.601 111.059 106.601C110.505 106.601 110.108 106.739 109.869 107.013C109.635 107.288 109.519 107.684 109.519 108.203V120.969H107.238ZM114.395 120.969V109.255H116.599V111.116H116.721C116.935 110.486 117.311 109.99 117.85 109.629C118.394 109.263 119.009 109.08 119.695 109.08C119.838 109.08 120.006 109.085 120.199 109.095C120.397 109.105 120.552 109.118 120.664 109.133V111.314C120.572 111.289 120.41 111.261 120.176 111.23C119.942 111.195 119.708 111.177 119.474 111.177C118.935 111.177 118.455 111.291 118.033 111.52C117.616 111.744 117.286 112.057 117.042 112.458C116.798 112.855 116.676 113.307 116.676 113.816V120.969H114.395ZM125.941 121.228C125.199 121.228 124.528 121.091 123.928 120.816C123.328 120.537 122.853 120.132 122.502 119.604C122.156 119.075 121.983 118.427 121.983 117.659C121.983 116.998 122.11 116.454 122.364 116.027C122.619 115.6 122.962 115.262 123.394 115.013C123.826 114.764 124.309 114.576 124.843 114.449C125.377 114.321 125.921 114.225 126.475 114.159C127.176 114.077 127.746 114.011 128.183 113.96C128.62 113.905 128.938 113.816 129.136 113.694C129.335 113.572 129.434 113.373 129.434 113.099V113.045C129.434 112.379 129.246 111.863 128.869 111.497C128.498 111.131 127.944 110.948 127.207 110.948C126.439 110.948 125.834 111.119 125.392 111.459C124.955 111.795 124.652 112.168 124.485 112.58L122.342 112.092C122.596 111.38 122.967 110.806 123.455 110.369C123.948 109.926 124.515 109.606 125.156 109.408C125.796 109.204 126.47 109.103 127.176 109.103C127.644 109.103 128.14 109.159 128.664 109.271C129.192 109.377 129.685 109.576 130.143 109.865C130.606 110.155 130.984 110.569 131.279 111.108C131.574 111.642 131.722 112.336 131.722 113.19V120.969H129.495V119.367H129.403C129.256 119.662 129.035 119.952 128.74 120.237C128.445 120.521 128.066 120.758 127.604 120.946C127.141 121.134 126.587 121.228 125.941 121.228ZM126.437 119.398C127.067 119.398 127.606 119.273 128.053 119.024C128.506 118.775 128.849 118.45 129.083 118.048C129.322 117.641 129.441 117.207 129.441 116.744V115.234C129.36 115.315 129.202 115.392 128.969 115.463C128.74 115.529 128.478 115.587 128.183 115.638C127.888 115.684 127.601 115.727 127.321 115.768C127.042 115.803 126.808 115.834 126.62 115.859C126.177 115.915 125.773 116.009 125.407 116.142C125.046 116.274 124.756 116.464 124.538 116.713C124.324 116.957 124.218 117.283 124.218 117.69C124.218 118.254 124.426 118.681 124.843 118.971C125.26 119.255 125.791 119.398 126.437 119.398ZM134.759 120.969V109.255H136.947V111.162H137.092C137.336 110.516 137.735 110.013 138.289 109.652C138.844 109.286 139.507 109.103 140.28 109.103C141.063 109.103 141.719 109.286 142.247 109.652C142.781 110.018 143.175 110.521 143.429 111.162H143.551C143.831 110.536 144.276 110.038 144.886 109.667C145.496 109.291 146.223 109.103 147.067 109.103C148.129 109.103 148.996 109.436 149.667 110.102C150.344 110.768 150.682 111.772 150.682 113.114V120.969H148.401V113.328C148.401 112.534 148.185 111.96 147.753 111.604C147.321 111.248 146.805 111.07 146.205 111.07C145.463 111.07 144.886 111.299 144.474 111.757C144.062 112.209 143.856 112.791 143.856 113.503V120.969H141.584V113.183C141.584 112.547 141.386 112.036 140.989 111.65C140.592 111.263 140.076 111.07 139.441 111.07C139.009 111.07 138.61 111.185 138.244 111.413C137.883 111.637 137.59 111.95 137.367 112.351C137.148 112.753 137.039 113.218 137.039 113.747V120.969H134.759ZM158.786 121.205C157.632 121.205 156.638 120.959 155.804 120.465C154.976 119.967 154.335 119.268 153.883 118.368C153.435 117.463 153.212 116.403 153.212 115.188C153.212 113.988 153.435 112.931 153.883 112.016C154.335 111.101 154.966 110.386 155.774 109.873C156.587 109.359 157.538 109.103 158.626 109.103C159.287 109.103 159.927 109.212 160.548 109.431C161.168 109.649 161.725 109.992 162.218 110.46C162.711 110.928 163.1 111.535 163.385 112.283C163.669 113.025 163.812 113.927 163.812 114.99V115.798H154.5V114.09H161.577C161.577 113.49 161.455 112.959 161.211 112.496C160.967 112.029 160.624 111.66 160.182 111.391C159.744 111.121 159.231 110.986 158.641 110.986C158.001 110.986 157.441 111.144 156.964 111.459C156.491 111.769 156.125 112.176 155.865 112.679C155.611 113.178 155.484 113.719 155.484 114.304V115.638C155.484 116.421 155.621 117.087 155.896 117.636C156.175 118.185 156.564 118.605 157.063 118.894C157.561 119.179 158.143 119.322 158.809 119.322C159.241 119.322 159.635 119.261 159.991 119.139C160.347 119.011 160.654 118.823 160.914 118.574C161.173 118.325 161.371 118.017 161.509 117.651L163.667 118.04C163.494 118.676 163.184 119.233 162.736 119.71C162.294 120.183 161.737 120.552 161.066 120.816C160.4 121.076 159.64 121.205 158.786 121.205ZM175.119 112.115L173.052 112.481C172.966 112.217 172.829 111.965 172.641 111.726C172.458 111.487 172.208 111.291 171.893 111.139C171.578 110.986 171.184 110.91 170.711 110.91C170.066 110.91 169.527 111.055 169.095 111.345C168.662 111.629 168.446 111.998 168.446 112.451C168.446 112.842 168.591 113.157 168.881 113.396C169.171 113.635 169.639 113.831 170.284 113.983L172.145 114.41C173.223 114.66 174.026 115.043 174.555 115.562C175.083 116.081 175.348 116.754 175.348 117.583C175.348 118.284 175.144 118.91 174.738 119.459C174.336 120.003 173.774 120.43 173.052 120.74C172.336 121.05 171.504 121.205 170.559 121.205C169.247 121.205 168.177 120.926 167.348 120.366C166.519 119.802 166.011 119.001 165.823 117.964L168.027 117.629C168.164 118.203 168.446 118.638 168.873 118.933C169.3 119.222 169.857 119.367 170.543 119.367C171.291 119.367 171.888 119.212 172.336 118.902C172.783 118.587 173.007 118.203 173.007 117.751C173.007 117.385 172.869 117.077 172.595 116.828C172.325 116.579 171.911 116.391 171.352 116.264L169.369 115.829C168.276 115.58 167.468 115.183 166.944 114.639C166.425 114.095 166.166 113.406 166.166 112.573C166.166 111.881 166.359 111.276 166.746 110.758C167.132 110.239 167.666 109.835 168.347 109.545C169.028 109.25 169.809 109.103 170.688 109.103C171.954 109.103 172.951 109.377 173.678 109.926C174.405 110.47 174.885 111.2 175.119 112.115ZM45.3403 150.101C44.7251 150.101 44.1633 149.951 43.6549 149.651C43.1465 149.346 42.7398 148.94 42.4348 148.431C42.1348 147.923 41.9849 147.361 41.9849 146.746C41.9849 146.126 42.1348 145.564 42.4348 145.061C42.7398 144.552 43.1465 144.148 43.6549 143.848C44.1633 143.543 44.7251 143.391 45.3403 143.391C45.9605 143.391 46.5223 143.543 47.0256 143.848C47.534 144.148 47.9382 144.552 48.2382 145.061C48.5432 145.564 48.6957 146.126 48.6957 146.746C48.6957 147.361 48.5432 147.923 48.2382 148.431C47.9382 148.94 47.534 149.346 47.0256 149.651C46.5223 149.951 45.9605 150.101 45.3403 150.101ZM73.1999 137.351H75.5639V147.623C75.5639 148.716 75.3072 149.684 74.7937 150.528C74.2802 151.367 73.5583 152.028 72.6279 152.511C71.6975 152.989 70.607 153.228 69.3564 153.228C68.1108 153.228 67.0228 152.989 66.0925 152.511C65.1621 152.028 64.4402 151.367 63.9267 150.528C63.4132 149.684 63.1565 148.716 63.1565 147.623V137.351H65.5129V147.432C65.5129 148.139 65.6679 148.767 65.9781 149.316C66.2933 149.865 66.7381 150.297 67.3126 150.612C67.8871 150.922 68.5684 151.078 69.3564 151.078C70.1495 151.078 70.8333 150.922 71.4078 150.612C71.9873 150.297 72.4296 149.865 72.7347 149.316C73.0448 148.767 73.1999 148.139 73.1999 147.432V137.351ZM81.3463 137.351V152.969H78.9899V137.351H81.3463ZM99.0557 144.115L96.9891 144.481C96.9026 144.217 96.7654 143.965 96.5773 143.726C96.3942 143.487 96.1451 143.291 95.8299 143.139C95.5147 142.986 95.1207 142.91 94.6479 142.91C94.0022 142.91 93.4633 143.055 93.0312 143.345C92.5991 143.629 92.383 143.998 92.383 144.451C92.383 144.842 92.5279 145.157 92.8177 145.396C93.1075 145.635 93.5752 145.831 94.2208 145.983L96.0816 146.41C97.1594 146.66 97.9627 147.043 98.4914 147.562C99.0201 148.081 99.2845 148.754 99.2845 149.583C99.2845 150.284 99.0811 150.91 98.6744 151.459C98.2728 152.003 97.711 152.43 96.9891 152.74C96.2722 153.05 95.441 153.205 94.4954 153.205C93.1837 153.205 92.1135 152.926 91.2848 152.366C90.4562 151.802 89.9478 151.001 89.7597 149.964L91.9636 149.629C92.1008 150.203 92.383 150.638 92.81 150.933C93.2371 151.222 93.7938 151.367 94.4801 151.367C95.2275 151.367 95.8248 151.212 96.2722 150.902C96.7196 150.587 96.9433 150.203 96.9433 149.751C96.9433 149.385 96.806 149.077 96.5315 148.828C96.2621 148.579 95.8477 148.391 95.2885 148.264L93.3057 147.829C92.2127 147.58 91.4043 147.183 90.8807 146.639C90.3621 146.095 90.1028 145.406 90.1028 144.573C90.1028 143.881 90.296 143.276 90.6824 142.758C91.0688 142.239 91.6026 141.835 92.2838 141.545C92.9651 141.25 93.7455 141.103 94.625 141.103C95.8909 141.103 96.8874 141.377 97.6144 141.926C98.3414 142.47 98.8218 143.2 99.0557 144.115ZM106.726 153.205C105.592 153.205 104.616 152.948 103.797 152.435C102.984 151.916 102.358 151.202 101.921 150.292C101.484 149.382 101.265 148.34 101.265 147.165C101.265 145.976 101.489 144.926 101.936 144.016C102.384 143.101 103.014 142.386 103.828 141.873C104.641 141.359 105.599 141.103 106.703 141.103C107.592 141.103 108.385 141.268 109.082 141.598C109.778 141.924 110.34 142.381 110.767 142.971C111.199 143.561 111.456 144.25 111.538 145.038H109.318C109.196 144.489 108.917 144.016 108.48 143.619C108.047 143.223 107.468 143.024 106.741 143.024C106.105 143.024 105.549 143.192 105.071 143.528C104.598 143.858 104.229 144.331 103.965 144.946C103.701 145.556 103.568 146.278 103.568 147.112C103.568 147.966 103.698 148.703 103.957 149.324C104.217 149.944 104.583 150.424 105.055 150.765C105.533 151.105 106.095 151.276 106.741 151.276C107.173 151.276 107.564 151.197 107.915 151.039C108.271 150.877 108.568 150.645 108.807 150.345C109.051 150.045 109.222 149.684 109.318 149.263H111.538C111.456 150.02 111.21 150.696 110.798 151.291C110.386 151.886 109.834 152.354 109.143 152.694C108.457 153.035 107.651 153.205 106.726 153.205ZM113.976 152.969V141.255H116.18V143.116H116.302C116.515 142.486 116.892 141.99 117.43 141.629C117.974 141.263 118.59 141.08 119.276 141.08C119.418 141.08 119.586 141.085 119.779 141.095C119.978 141.105 120.133 141.118 120.244 141.133V143.314C120.153 143.289 119.99 143.261 119.756 143.23C119.523 143.195 119.289 143.177 119.055 143.177C118.516 143.177 118.035 143.291 117.614 143.52C117.197 143.744 116.866 144.057 116.622 144.458C116.378 144.855 116.256 145.307 116.256 145.816V152.969H113.976ZM126.847 153.205C125.693 153.205 124.699 152.959 123.865 152.465C123.036 151.967 122.396 151.268 121.943 150.368C121.496 149.463 121.272 148.403 121.272 147.188C121.272 145.988 121.496 144.931 121.943 144.016C122.396 143.101 123.026 142.386 123.834 141.873C124.648 141.359 125.599 141.103 126.687 141.103C127.347 141.103 127.988 141.212 128.608 141.431C129.228 141.649 129.785 141.992 130.278 142.46C130.771 142.928 131.16 143.535 131.445 144.283C131.73 145.025 131.872 145.927 131.872 146.99V147.798H122.561V146.09H129.638C129.638 145.49 129.516 144.959 129.272 144.496C129.028 144.029 128.685 143.66 128.242 143.391C127.805 143.121 127.292 142.986 126.702 142.986C126.061 142.986 125.502 143.144 125.024 143.459C124.551 143.769 124.185 144.176 123.926 144.679C123.672 145.178 123.545 145.719 123.545 146.304V147.638C123.545 148.421 123.682 149.087 123.956 149.636C124.236 150.185 124.625 150.605 125.123 150.894C125.621 151.179 126.204 151.322 126.87 151.322C127.302 151.322 127.696 151.261 128.052 151.139C128.407 151.011 128.715 150.823 128.974 150.574C129.234 150.325 129.432 150.017 129.569 149.651L131.727 150.04C131.554 150.676 131.244 151.233 130.797 151.71C130.355 152.183 129.798 152.552 129.127 152.816C128.461 153.076 127.701 153.205 126.847 153.205ZM139.45 153.205C138.296 153.205 137.302 152.959 136.469 152.465C135.64 151.967 134.999 151.268 134.547 150.368C134.1 149.463 133.876 148.403 133.876 147.188C133.876 145.988 134.1 144.931 134.547 144.016C134.999 143.101 135.63 142.386 136.438 141.873C137.252 141.359 138.202 141.103 139.29 141.103C139.951 141.103 140.592 141.212 141.212 141.431C141.832 141.649 142.389 141.992 142.882 142.46C143.375 142.928 143.764 143.535 144.049 144.283C144.334 145.025 144.476 145.927 144.476 146.99V147.798H135.165V146.09H142.242C142.242 145.49 142.12 144.959 141.876 144.496C141.632 144.029 141.288 143.66 140.846 143.391C140.409 143.121 139.895 142.986 139.306 142.986C138.665 142.986 138.106 143.144 137.628 143.459C137.155 143.769 136.789 144.176 136.53 144.679C136.276 145.178 136.148 145.719 136.148 146.304V147.638C136.148 148.421 136.286 149.087 136.56 149.636C136.84 150.185 137.229 150.605 137.727 150.894C138.225 151.179 138.807 151.322 139.473 151.322C139.905 151.322 140.299 151.261 140.655 151.139C141.011 151.011 141.319 150.823 141.578 150.574C141.837 150.325 142.036 150.017 142.173 149.651L144.331 150.04C144.158 150.676 143.848 151.233 143.401 151.71C142.958 152.183 142.402 152.552 141.731 152.816C141.065 153.076 140.305 153.205 139.45 153.205ZM149.286 146.014V152.969H147.006V141.255H149.195V143.162H149.339C149.609 142.542 150.031 142.043 150.605 141.667C151.185 141.291 151.914 141.103 152.794 141.103C153.592 141.103 154.291 141.271 154.891 141.606C155.491 141.937 155.956 142.43 156.287 143.085C156.617 143.741 156.782 144.552 156.782 145.518V152.969H154.502V145.793C154.502 144.944 154.281 144.28 153.839 143.802C153.396 143.319 152.789 143.078 152.016 143.078C151.487 143.078 151.017 143.192 150.605 143.421C150.199 143.65 149.876 143.985 149.637 144.428C149.403 144.865 149.286 145.394 149.286 146.014ZM168.618 144.115L166.551 144.481C166.465 144.217 166.328 143.965 166.139 143.726C165.956 143.487 165.707 143.291 165.392 143.139C165.077 142.986 164.683 142.91 164.21 142.91C163.564 142.91 163.026 143.055 162.593 143.345C162.161 143.629 161.945 143.998 161.945 144.451C161.945 144.842 162.09 145.157 162.38 145.396C162.67 145.635 163.137 145.831 163.783 145.983L165.644 146.41C166.722 146.66 167.525 147.043 168.054 147.562C168.582 148.081 168.847 148.754 168.847 149.583C168.847 150.284 168.643 150.91 168.237 151.459C167.835 152.003 167.273 152.43 166.551 152.74C165.834 153.05 165.003 153.205 164.058 153.205C162.746 153.205 161.676 152.926 160.847 152.366C160.018 151.802 159.51 151.001 159.322 149.964L161.526 149.629C161.663 150.203 161.945 150.638 162.372 150.933C162.799 151.222 163.356 151.367 164.042 151.367C164.79 151.367 165.387 151.212 165.834 150.902C166.282 150.587 166.506 150.203 166.506 149.751C166.506 149.385 166.368 149.077 166.094 148.828C165.824 148.579 165.41 148.391 164.851 148.264L162.868 147.829C161.775 147.58 160.967 147.183 160.443 146.639C159.924 146.095 159.665 145.406 159.665 144.573C159.665 143.881 159.858 143.276 160.245 142.758C160.631 142.239 161.165 141.835 161.846 141.545C162.527 141.25 163.308 141.103 164.187 141.103C165.453 141.103 166.45 141.377 167.177 141.926C167.904 142.47 168.384 143.2 168.618 144.115ZM45.3403 182.101C44.7251 182.101 44.1633 181.951 43.6549 181.651C43.1465 181.346 42.7398 180.94 42.4348 180.431C42.1348 179.923 41.9849 179.361 41.9849 178.746C41.9849 178.126 42.1348 177.564 42.4348 177.061C42.7398 176.552 43.1465 176.148 43.6549 175.848C44.1633 175.543 44.7251 175.391 45.3403 175.391C45.9605 175.391 46.5223 175.543 47.0256 175.848C47.534 176.148 47.9382 176.552 48.2382 177.061C48.5432 177.564 48.6957 178.126 48.6957 178.746C48.6957 179.361 48.5432 179.923 48.2382 180.431C47.9382 180.94 47.534 181.346 47.0256 181.651C46.5223 181.951 45.9605 182.101 45.3403 182.101ZM65.5129 169.351V184.969H63.1565V169.351H65.5129ZM71.0417 178.014V184.969H68.7615V173.255H70.9502V175.162H71.0951C71.3645 174.542 71.7865 174.043 72.361 173.667C72.9406 173.291 73.6701 173.103 74.5497 173.103C75.3478 173.103 76.0469 173.271 76.6468 173.606C77.2467 173.937 77.7119 174.43 78.0424 175.085C78.3728 175.741 78.538 176.552 78.538 177.518V184.969H76.2579V177.793C76.2579 176.944 76.0367 176.28 75.5944 175.802C75.1521 175.319 74.5446 175.078 73.7718 175.078C73.2431 175.078 72.7728 175.192 72.361 175.421C71.9543 175.65 71.6315 175.985 71.3925 176.428C71.1586 176.865 71.0417 177.394 71.0417 178.014ZM87.0639 173.255V175.085H80.6657V173.255H87.0639ZM82.3815 170.449H84.6617V181.529C84.6617 181.972 84.7278 182.305 84.86 182.528C84.9922 182.747 85.1625 182.897 85.3709 182.978C85.5844 183.055 85.8158 183.093 86.0649 183.093C86.2479 183.093 86.408 183.08 86.5453 183.055C86.6826 183.029 86.7893 183.009 86.8656 182.994L87.2774 184.877C87.1452 184.928 86.9571 184.979 86.7131 185.03C86.469 185.086 86.164 185.116 85.798 185.121C85.1981 185.131 84.6388 185.025 84.1202 184.801C83.6017 184.577 83.1823 184.232 82.862 183.764C82.5417 183.296 82.3815 182.709 82.3815 182.002V170.449ZM94.5087 185.205C93.3547 185.205 92.3607 184.959 91.527 184.465C90.6983 183.967 90.0577 183.268 89.6052 182.368C89.1578 181.463 88.9341 180.403 88.9341 179.188C88.9341 177.988 89.1578 176.931 89.6052 176.016C90.0577 175.101 90.6881 174.386 91.4965 173.873C92.3099 173.359 93.2606 173.103 94.3486 173.103C95.0095 173.103 95.6501 173.212 96.2703 173.431C96.8906 173.649 97.4473 173.992 97.9404 174.46C98.4336 174.928 98.8225 175.535 99.1072 176.283C99.3919 177.025 99.5342 177.927 99.5342 178.99V179.798H90.2229V178.09H97.2998C97.2998 177.49 97.1778 176.959 96.9338 176.496C96.6898 176.029 96.3466 175.66 95.9043 175.391C95.4671 175.121 94.9536 174.986 94.3638 174.986C93.7233 174.986 93.164 175.144 92.6861 175.459C92.2133 175.769 91.8473 176.176 91.588 176.679C91.3338 177.178 91.2067 177.719 91.2067 178.304V179.638C91.2067 180.421 91.3439 181.087 91.6185 181.636C91.8981 182.185 92.287 182.605 92.7853 182.894C93.2835 183.179 93.8656 183.322 94.5316 183.322C94.9637 183.322 95.3578 183.261 95.7136 183.139C96.0695 183.011 96.3771 182.823 96.6364 182.574C96.8957 182.325 97.0939 182.017 97.2312 181.651L99.3893 182.04C99.2165 182.676 98.9064 183.233 98.459 183.71C98.0167 184.183 97.46 184.552 96.7889 184.816C96.1229 185.076 95.3628 185.205 94.5087 185.205ZM102.064 184.969V173.255H104.268V175.116H104.39C104.604 174.486 104.98 173.99 105.519 173.629C106.063 173.263 106.678 173.08 107.364 173.08C107.507 173.08 107.674 173.085 107.868 173.095C108.066 173.105 108.221 173.118 108.333 173.133V175.314C108.241 175.289 108.079 175.261 107.845 175.23C107.611 175.195 107.377 175.177 107.143 175.177C106.604 175.177 106.124 175.291 105.702 175.52C105.285 175.744 104.954 176.057 104.71 176.458C104.466 176.855 104.344 177.307 104.344 177.816V184.969H102.064ZM113.61 185.228C112.868 185.228 112.197 185.091 111.597 184.816C110.997 184.537 110.521 184.132 110.171 183.604C109.825 183.075 109.652 182.427 109.652 181.659C109.652 180.998 109.779 180.454 110.033 180.027C110.287 179.6 110.631 179.262 111.063 179.013C111.495 178.764 111.978 178.576 112.512 178.449C113.046 178.321 113.59 178.225 114.144 178.159C114.845 178.077 115.415 178.011 115.852 177.96C116.289 177.905 116.607 177.816 116.805 177.694C117.003 177.572 117.103 177.373 117.103 177.099V177.045C117.103 176.379 116.914 175.863 116.538 175.497C116.167 175.131 115.613 174.948 114.876 174.948C114.108 174.948 113.503 175.119 113.061 175.459C112.624 175.795 112.321 176.168 112.153 176.58L110.01 176.092C110.265 175.38 110.636 174.806 111.124 174.369C111.617 173.926 112.184 173.606 112.824 173.408C113.465 173.204 114.139 173.103 114.845 173.103C115.313 173.103 115.809 173.159 116.332 173.271C116.861 173.377 117.354 173.576 117.812 173.865C118.274 174.155 118.653 174.569 118.948 175.108C119.243 175.642 119.39 176.336 119.39 177.19V184.969H117.164V183.367H117.072C116.925 183.662 116.703 183.952 116.409 184.237C116.114 184.521 115.735 184.758 115.272 184.946C114.81 185.134 114.256 185.228 113.61 185.228ZM114.106 183.398C114.736 183.398 115.275 183.273 115.722 183.024C116.175 182.775 116.518 182.45 116.752 182.048C116.991 181.641 117.11 181.207 117.11 180.744V179.234C117.029 179.315 116.871 179.392 116.637 179.463C116.409 179.529 116.147 179.587 115.852 179.638C115.557 179.684 115.27 179.727 114.99 179.768C114.711 179.803 114.477 179.834 114.289 179.859C113.846 179.915 113.442 180.009 113.076 180.142C112.715 180.274 112.425 180.464 112.207 180.713C111.993 180.957 111.886 181.283 111.886 181.69C111.886 182.254 112.095 182.681 112.512 182.971C112.929 183.255 113.46 183.398 114.106 183.398ZM127.361 185.205C126.228 185.205 125.252 184.948 124.433 184.435C123.62 183.916 122.994 183.202 122.557 182.292C122.12 181.382 121.901 180.34 121.901 179.165C121.901 177.976 122.125 176.926 122.572 176.016C123.02 175.101 123.65 174.386 124.464 173.873C125.277 173.359 126.235 173.103 127.339 173.103C128.228 173.103 129.021 173.268 129.718 173.598C130.414 173.924 130.976 174.381 131.403 174.971C131.835 175.561 132.092 176.25 132.173 177.038H129.954C129.832 176.489 129.553 176.016 129.115 175.619C128.683 175.223 128.104 175.024 127.377 175.024C126.741 175.024 126.184 175.192 125.707 175.528C125.234 175.858 124.865 176.331 124.601 176.946C124.336 177.556 124.204 178.278 124.204 179.112C124.204 179.966 124.334 180.703 124.593 181.324C124.852 181.944 125.219 182.424 125.691 182.765C126.169 183.105 126.731 183.276 127.377 183.276C127.809 183.276 128.2 183.197 128.551 183.039C128.907 182.877 129.204 182.645 129.443 182.345C129.687 182.045 129.858 181.684 129.954 181.263H132.173C132.092 182.02 131.845 182.696 131.434 183.291C131.022 183.886 130.47 184.354 129.779 184.694C129.092 185.035 128.287 185.205 127.361 185.205ZM140.08 173.255V175.085H133.681V173.255H140.08ZM135.397 170.449H137.677V181.529C137.677 181.972 137.744 182.305 137.876 182.528C138.008 182.747 138.178 182.897 138.387 182.978C138.6 183.055 138.831 183.093 139.081 183.093C139.264 183.093 139.424 183.08 139.561 183.055C139.698 183.029 139.805 183.009 139.881 182.994L140.293 184.877C140.161 184.928 139.973 184.979 139.729 185.03C139.485 185.086 139.18 185.116 138.814 185.121C138.214 185.131 137.655 185.025 137.136 184.801C136.617 184.577 136.198 184.232 135.878 183.764C135.557 183.296 135.397 182.709 135.397 182.002V170.449ZM142.602 184.969V173.255H144.882V184.969H142.602ZM143.753 171.448C143.357 171.448 143.016 171.316 142.732 171.051C142.452 170.782 142.312 170.462 142.312 170.09C142.312 169.714 142.452 169.394 142.732 169.13C143.016 168.86 143.357 168.725 143.753 168.725C144.15 168.725 144.488 168.86 144.768 169.13C145.052 169.394 145.195 169.714 145.195 170.09C145.195 170.462 145.052 170.782 144.768 171.051C144.488 171.316 144.15 171.448 143.753 171.448ZM157.97 173.255L153.722 184.969H151.282L147.027 173.255H149.475L152.441 182.269H152.563L155.522 173.255H157.97ZM164.763 185.205C163.609 185.205 162.615 184.959 161.781 184.465C160.953 183.967 160.312 183.268 159.859 182.368C159.412 181.463 159.188 180.403 159.188 179.188C159.188 177.988 159.412 176.931 159.859 176.016C160.312 175.101 160.942 174.386 161.751 173.873C162.564 173.359 163.515 173.103 164.603 173.103C165.264 173.103 165.904 173.212 166.525 173.431C167.145 173.649 167.702 173.992 168.195 174.46C168.688 174.928 169.077 175.535 169.361 176.283C169.646 177.025 169.788 177.927 169.788 178.99V179.798H160.477V178.09H167.554C167.554 177.49 167.432 176.959 167.188 176.496C166.944 176.029 166.601 175.66 166.159 175.391C165.721 175.121 165.208 174.986 164.618 174.986C163.977 174.986 163.418 175.144 162.94 175.459C162.468 175.769 162.102 176.176 161.842 176.679C161.588 177.178 161.461 177.719 161.461 178.304V179.638C161.461 180.421 161.598 181.087 161.873 181.636C162.152 182.185 162.541 182.605 163.04 182.894C163.538 183.179 164.12 183.322 164.786 183.322C165.218 183.322 165.612 183.261 165.968 183.139C166.324 183.011 166.631 182.823 166.891 182.574C167.15 182.325 167.348 182.017 167.485 181.651L169.644 182.04C169.471 182.676 169.161 183.233 168.713 183.71C168.271 184.183 167.714 184.552 167.043 184.816C166.377 185.076 165.617 185.205 164.763 185.205ZM178.002 189.361V173.255H180.228V175.154H180.419C180.551 174.91 180.742 174.628 180.991 174.308C181.24 173.987 181.586 173.708 182.028 173.469C182.47 173.225 183.055 173.103 183.782 173.103C184.728 173.103 185.572 173.342 186.314 173.82C187.056 174.297 187.638 174.986 188.06 175.886C188.487 176.786 188.701 177.869 188.701 179.135C188.701 180.401 188.49 181.486 188.068 182.391C187.646 183.291 187.066 183.985 186.329 184.473C185.592 184.956 184.751 185.198 183.805 185.198C183.093 185.198 182.511 185.078 182.059 184.839C181.611 184.6 181.26 184.321 181.006 184C180.752 183.68 180.556 183.395 180.419 183.146H180.282V189.361H178.002ZM180.236 179.112C180.236 179.936 180.356 180.658 180.594 181.278C180.833 181.898 181.179 182.384 181.632 182.734C182.084 183.08 182.638 183.253 183.294 183.253C183.975 183.253 184.545 183.072 185.002 182.711C185.46 182.345 185.806 181.85 186.039 181.224C186.278 180.599 186.398 179.895 186.398 179.112C186.398 178.339 186.281 177.645 186.047 177.03C185.818 176.415 185.473 175.929 185.01 175.574C184.552 175.218 183.98 175.04 183.294 175.04C182.633 175.04 182.074 175.21 181.616 175.551C181.164 175.891 180.821 176.367 180.587 176.977C180.353 177.587 180.236 178.299 180.236 179.112ZM191.256 184.969V173.255H193.46V175.116H193.582C193.795 174.486 194.171 173.99 194.71 173.629C195.254 173.263 195.869 173.08 196.556 173.08C196.698 173.08 196.866 173.085 197.059 173.095C197.257 173.105 197.412 173.118 197.524 173.133V175.314C197.433 175.289 197.27 175.261 197.036 175.23C196.802 175.195 196.568 175.177 196.334 175.177C195.796 175.177 195.315 175.291 194.893 175.52C194.476 175.744 194.146 176.057 193.902 176.458C193.658 176.855 193.536 177.307 193.536 177.816V184.969H191.256ZM204.012 185.205C202.914 185.205 201.955 184.953 201.137 184.45C200.318 183.947 199.683 183.243 199.23 182.338C198.778 181.433 198.552 180.375 198.552 179.165C198.552 177.95 198.778 176.888 199.23 175.978C199.683 175.068 200.318 174.361 201.137 173.858C201.955 173.354 202.914 173.103 204.012 173.103C205.11 173.103 206.068 173.354 206.887 173.858C207.705 174.361 208.341 175.068 208.793 175.978C209.246 176.888 209.472 177.95 209.472 179.165C209.472 180.375 209.246 181.433 208.793 182.338C208.341 183.243 207.705 183.947 206.887 184.45C206.068 184.953 205.11 185.205 204.012 185.205ZM204.02 183.291C204.731 183.291 205.321 183.103 205.789 182.727C206.257 182.351 206.602 181.85 206.826 181.224C207.055 180.599 207.169 179.91 207.169 179.158C207.169 178.41 207.055 177.724 206.826 177.099C206.602 176.468 206.257 175.962 205.789 175.581C205.321 175.2 204.731 175.009 204.02 175.009C203.303 175.009 202.708 175.2 202.235 175.581C201.767 175.962 201.419 176.468 201.19 177.099C200.967 177.724 200.855 178.41 200.855 179.158C200.855 179.91 200.967 180.599 201.19 181.224C201.419 181.85 201.767 182.351 202.235 182.727C202.708 183.103 203.303 183.291 204.02 183.291ZM217.485 173.255V175.085H211.087V173.255H217.485ZM212.803 170.449H215.083V181.529C215.083 181.972 215.149 182.305 215.281 182.528C215.413 182.747 215.584 182.897 215.792 182.978C216.006 183.055 216.237 183.093 216.486 183.093C216.669 183.093 216.829 183.08 216.967 183.055C217.104 183.029 217.211 183.009 217.287 182.994L217.699 184.877C217.566 184.928 217.378 184.979 217.134 185.03C216.89 185.086 216.585 185.116 216.219 185.121C215.619 185.131 215.06 185.025 214.541 184.801C214.023 184.577 213.604 184.232 213.283 183.764C212.963 183.296 212.803 182.709 212.803 182.002V170.449ZM224.816 185.205C223.717 185.205 222.759 184.953 221.941 184.45C221.122 183.947 220.487 183.243 220.034 182.338C219.582 181.433 219.355 180.375 219.355 179.165C219.355 177.95 219.582 176.888 220.034 175.978C220.487 175.068 221.122 174.361 221.941 173.858C222.759 173.354 223.717 173.103 224.816 173.103C225.914 173.103 226.872 173.354 227.691 173.858C228.509 174.361 229.145 175.068 229.597 175.978C230.05 176.888 230.276 177.95 230.276 179.165C230.276 180.375 230.05 181.433 229.597 182.338C229.145 183.243 228.509 183.947 227.691 184.45C226.872 184.953 225.914 185.205 224.816 185.205ZM224.823 183.291C225.535 183.291 226.125 183.103 226.592 182.727C227.06 182.351 227.406 181.85 227.63 181.224C227.858 180.599 227.973 179.91 227.973 179.158C227.973 178.41 227.858 177.724 227.63 177.099C227.406 176.468 227.06 175.962 226.592 175.581C226.125 175.2 225.535 175.009 224.823 175.009C224.106 175.009 223.512 175.2 223.039 175.581C222.571 175.962 222.223 176.468 221.994 177.099C221.77 177.724 221.658 178.41 221.658 179.158C221.658 179.91 221.77 180.599 221.994 181.224C222.223 181.85 222.571 182.351 223.039 182.727C223.512 183.103 224.106 183.291 224.823 183.291ZM238.289 173.255V175.085H231.891V173.255H238.289ZM233.606 170.449H235.887V181.529C235.887 181.972 235.953 182.305 236.085 182.528C236.217 182.747 236.387 182.897 236.596 182.978C236.809 183.055 237.041 183.093 237.29 183.093C237.473 183.093 237.633 183.08 237.77 183.055C237.907 183.029 238.014 183.009 238.09 182.994L238.502 184.877C238.37 184.928 238.182 184.979 237.938 185.03C237.694 185.086 237.389 185.116 237.023 185.121C236.423 185.131 235.864 185.025 235.345 184.801C234.827 184.577 234.407 184.232 234.087 183.764C233.767 183.296 233.606 182.709 233.606 182.002V170.449ZM242.252 189.361C241.912 189.361 241.602 189.333 241.322 189.277C241.042 189.227 240.834 189.171 240.697 189.11L241.246 187.241C241.663 187.353 242.034 187.401 242.359 187.386C242.684 187.371 242.972 187.249 243.221 187.02C243.475 186.791 243.699 186.418 243.892 185.899L244.174 185.121L239.888 173.255H242.329L245.295 182.345H245.417L248.384 173.255H250.832L246.004 186.532C245.781 187.142 245.496 187.658 245.15 188.08C244.805 188.507 244.393 188.827 243.915 189.041C243.437 189.255 242.883 189.361 242.252 189.361ZM252.974 189.361V173.255H255.201V175.154H255.392C255.524 174.91 255.715 174.628 255.964 174.308C256.213 173.987 256.559 173.708 257.001 173.469C257.443 173.225 258.028 173.103 258.755 173.103C259.701 173.103 260.545 173.342 261.287 173.82C262.029 174.297 262.611 174.986 263.033 175.886C263.46 176.786 263.674 177.869 263.674 179.135C263.674 180.401 263.463 181.486 263.041 182.391C262.619 183.291 262.039 183.985 261.302 184.473C260.565 184.956 259.723 185.198 258.778 185.198C258.066 185.198 257.484 185.078 257.031 184.839C256.584 184.6 256.233 184.321 255.979 184C255.725 183.68 255.529 183.395 255.392 183.146H255.255V189.361H252.974ZM255.209 179.112C255.209 179.936 255.328 180.658 255.567 181.278C255.806 181.898 256.152 182.384 256.604 182.734C257.057 183.08 257.611 183.253 258.267 183.253C258.948 183.253 259.518 183.072 259.975 182.711C260.433 182.345 260.778 181.85 261.012 181.224C261.251 180.599 261.371 179.895 261.371 179.112C261.371 178.339 261.254 177.645 261.02 177.03C260.791 176.415 260.445 175.929 259.983 175.574C259.525 175.218 258.953 175.04 258.267 175.04C257.606 175.04 257.047 175.21 256.589 175.551C256.137 175.891 255.794 176.367 255.56 176.977C255.326 177.587 255.209 178.299 255.209 179.112ZM271.277 185.205C270.123 185.205 269.129 184.959 268.295 184.465C267.466 183.967 266.826 183.268 266.373 182.368C265.926 181.463 265.702 180.403 265.702 179.188C265.702 177.988 265.926 176.931 266.373 176.016C266.826 175.101 267.456 174.386 268.265 173.873C269.078 173.359 270.029 173.103 271.117 173.103C271.778 173.103 272.418 173.212 273.038 173.431C273.659 173.649 274.215 173.992 274.708 174.46C275.202 174.928 275.591 175.535 275.875 176.283C276.16 177.025 276.302 177.927 276.302 178.99V179.798H266.991V178.09H274.068C274.068 177.49 273.946 176.959 273.702 176.496C273.458 176.029 273.115 175.66 272.672 175.391C272.235 175.121 271.722 174.986 271.132 174.986C270.491 174.986 269.932 175.144 269.454 175.459C268.981 175.769 268.615 176.176 268.356 176.679C268.102 177.178 267.975 177.719 267.975 178.304V179.638C267.975 180.421 268.112 181.087 268.387 181.636C268.666 182.185 269.055 182.605 269.553 182.894C270.052 183.179 270.634 183.322 271.3 183.322C271.732 183.322 272.126 183.261 272.482 183.139C272.838 183.011 273.145 182.823 273.404 182.574C273.664 182.325 273.862 182.017 273.999 181.651L276.157 182.04C275.985 182.676 275.674 183.233 275.227 183.71C274.785 184.183 274.228 184.552 273.557 184.816C272.891 185.076 272.131 185.205 271.277 185.205Z" fill="#1A2A51"/>
<path d="M45.2368 46.2646V28.9113H52.0832C53.3994 28.9113 54.5207 29.1627 55.4471 29.6655C56.3735 30.1626 57.0796 30.8545 57.5654 31.7414C58.0569 32.6226 58.3026 33.6394 58.3026 34.7918C58.3026 35.9442 58.054 36.961 57.5569 37.8422C57.0598 38.7234 56.3396 39.4097 55.3963 39.9012C54.4585 40.3927 53.3231 40.6384 51.99 40.6384H47.6262V37.6981H51.3969C52.103 37.6981 52.6848 37.5767 53.1424 37.3338C53.6056 37.0852 53.9501 36.7435 54.1761 36.3085C54.4077 35.8679 54.5235 35.3623 54.5235 34.7918C54.5235 34.2156 54.4077 33.7129 54.1761 33.2836C53.9501 32.8486 53.6056 32.5125 53.1424 32.2752C52.6791 32.0323 52.0917 31.9109 51.3799 31.9109H48.9057V46.2646H45.2368ZM60.6179 46.2646V33.2497H64.1174V35.5205H64.253C64.4902 34.7127 64.8885 34.1026 65.4477 33.6903C66.0069 33.2723 66.6509 33.0632 67.3796 33.0632C67.5604 33.0632 67.7553 33.0745 67.9643 33.0971C68.1733 33.1197 68.3569 33.1508 68.515 33.1903V36.3933C68.3456 36.3424 68.1111 36.2972 67.8118 36.2577C67.5124 36.2181 67.2384 36.1984 66.9898 36.1984C66.4588 36.1984 65.9843 36.3142 65.5663 36.5458C65.154 36.7717 64.8263 37.0881 64.5834 37.4948C64.3462 37.9015 64.2275 38.3704 64.2275 38.9014V46.2646H60.6179ZM75.6559 46.5188C74.3397 46.5188 73.2015 46.2392 72.2412 45.68C71.2865 45.1151 70.5493 44.3299 70.0296 43.3244C69.5099 42.3133 69.2501 41.1411 69.2501 39.808C69.2501 38.4636 69.5099 37.2886 70.0296 36.2831C70.5493 35.272 71.2865 34.4868 72.2412 33.9275C73.2015 33.3626 74.3397 33.0802 75.6559 33.0802C76.9721 33.0802 78.1075 33.3626 79.0622 33.9275C80.0225 34.4868 80.7625 35.272 81.2822 36.2831C81.8019 37.2886 82.0617 38.4636 82.0617 39.808C82.0617 41.1411 81.8019 42.3133 81.2822 43.3244C80.7625 44.3299 80.0225 45.1151 79.0622 45.68C78.1075 46.2392 76.9721 46.5188 75.6559 46.5188ZM75.6729 43.7227C76.2716 43.7227 76.7716 43.5532 77.1726 43.2143C77.5737 42.8697 77.8759 42.4008 78.0793 41.8077C78.2883 41.2146 78.3928 40.5395 78.3928 39.7826C78.3928 39.0256 78.2883 38.3506 78.0793 37.7575C77.8759 37.1643 77.5737 36.6955 77.1726 36.3509C76.7716 36.0063 76.2716 35.834 75.6729 35.834C75.0684 35.834 74.56 36.0063 74.1477 36.3509C73.7409 36.6955 73.4331 37.1643 73.2241 37.7575C73.0207 38.3506 72.919 39.0256 72.919 39.7826C72.919 40.5395 73.0207 41.2146 73.2241 41.8077C73.4331 42.4008 73.7409 42.8697 74.1477 43.2143C74.56 43.5532 75.0684 43.7227 75.6729 43.7227ZM91.3315 33.2497V35.9611H83.4937V33.2497H91.3315ZM85.2731 30.1315H88.8827V42.2653C88.8827 42.5985 88.9336 42.8584 89.0353 43.0448C89.1369 43.2256 89.2782 43.3527 89.4589 43.4261C89.6453 43.4995 89.86 43.5362 90.1029 43.5362C90.2724 43.5362 90.4418 43.5221 90.6113 43.4939C90.7808 43.46 90.9107 43.4346 91.0011 43.4176L91.5688 46.1037C91.388 46.1601 91.1338 46.2251 90.8062 46.2985C90.4785 46.3776 90.0803 46.4256 89.6114 46.4426C88.7415 46.4765 87.9789 46.3607 87.3236 46.0952C86.674 45.8297 86.1685 45.4173 85.8069 44.8581C85.4454 44.2988 85.2675 43.5927 85.2731 42.7398V30.1315ZM99.4235 46.5188C98.1073 46.5188 96.9691 46.2392 96.0088 45.68C95.0541 45.1151 94.3169 44.3299 93.7972 43.3244C93.2775 42.3133 93.0177 41.1411 93.0177 39.808C93.0177 38.4636 93.2775 37.2886 93.7972 36.2831C94.3169 35.272 95.0541 34.4868 96.0088 33.9275C96.9691 33.3626 98.1073 33.0802 99.4235 33.0802C100.74 33.0802 101.875 33.3626 102.83 33.9275C103.79 34.4868 104.53 35.272 105.05 36.2831C105.569 37.2886 105.829 38.4636 105.829 39.808C105.829 41.1411 105.569 42.3133 105.05 43.3244C104.53 44.3299 103.79 45.1151 102.83 45.68C101.875 46.2392 100.74 46.5188 99.4235 46.5188ZM99.4405 43.7227C100.039 43.7227 100.539 43.5532 100.94 43.2143C101.341 42.8697 101.644 42.4008 101.847 41.8077C102.056 41.2146 102.16 40.5395 102.16 39.7826C102.16 39.0256 102.056 38.3506 101.847 37.7575C101.644 37.1643 101.341 36.6955 100.94 36.3509C100.539 36.0063 100.039 35.834 99.4405 35.834C98.836 35.834 98.3276 36.0063 97.9153 36.3509C97.5086 36.6955 97.2007 37.1643 96.9917 37.7575C96.7883 38.3506 96.6866 39.0256 96.6866 39.7826C96.6866 40.5395 96.7883 41.2146 96.9917 41.8077C97.2007 42.4008 97.5086 42.8697 97.9153 43.2143C98.3276 43.5532 98.836 43.7227 99.4405 43.7227ZM115.099 33.2497V35.9611H107.261V33.2497H115.099ZM109.041 30.1315H112.65V42.2653C112.65 42.5985 112.701 42.8584 112.803 43.0448C112.905 43.2256 113.046 43.3527 113.227 43.4261C113.413 43.4995 113.628 43.5362 113.87 43.5362C114.04 43.5362 114.209 43.5221 114.379 43.4939C114.548 43.46 114.678 43.4346 114.769 43.4176L115.336 46.1037C115.156 46.1601 114.901 46.2251 114.574 46.2985C114.246 46.3776 113.848 46.4256 113.379 46.4426C112.509 46.4765 111.747 46.3607 111.091 46.0952C110.442 45.8297 109.936 45.4173 109.575 44.8581C109.213 44.2988 109.035 43.5927 109.041 42.7398V30.1315ZM119.679 51.1453C119.221 51.1453 118.792 51.1086 118.391 51.0351C117.996 50.9673 117.668 50.8798 117.408 50.7724L118.222 48.0779C118.645 48.2079 119.026 48.2785 119.365 48.2898C119.71 48.3011 120.007 48.222 120.255 48.0525C120.509 47.883 120.716 47.595 120.874 47.1882L121.086 46.6375L116.417 33.2497H120.213L122.907 42.8075H123.043L125.763 33.2497H129.584L124.526 47.6712C124.283 48.3717 123.952 48.9818 123.534 49.5014C123.122 50.0268 122.599 50.4307 121.967 50.7131C121.334 51.0012 120.571 51.1453 119.679 51.1453ZM131.431 51.1453V33.2497H134.99V35.4358H135.151C135.309 35.0855 135.538 34.7297 135.838 34.3681C136.143 34.001 136.538 33.6959 137.024 33.453C137.515 33.2045 138.125 33.0802 138.854 33.0802C139.803 33.0802 140.679 33.3287 141.481 33.8258C142.283 34.3173 142.924 35.0601 143.404 36.0543C143.884 37.0429 144.124 38.2828 144.124 39.7741C144.124 41.2259 143.89 42.4517 143.421 43.4515C142.958 44.4457 142.325 45.1998 141.523 45.7139C140.727 46.2223 139.834 46.4765 138.846 46.4765C138.145 46.4765 137.549 46.3607 137.058 46.1291C136.572 45.8975 136.174 45.6066 135.863 45.2563C135.552 44.9004 135.315 44.5417 135.151 44.1802H135.041V51.1453H131.431ZM134.965 39.7572C134.965 40.531 135.072 41.2061 135.287 41.7823C135.501 42.3585 135.812 42.8075 136.219 43.1295C136.626 43.4459 137.12 43.604 137.702 43.604C138.289 43.604 138.786 43.443 139.193 43.1211C139.6 42.7934 139.908 42.3415 140.117 41.7653C140.331 41.1835 140.439 40.5141 140.439 39.7572C140.439 39.0059 140.334 38.3449 140.125 37.7744C139.916 37.2039 139.608 36.7576 139.201 36.4356C138.795 36.1136 138.295 35.9526 137.702 35.9526C137.114 35.9526 136.617 36.108 136.21 36.4187C135.809 36.7294 135.501 37.17 135.287 37.7405C135.072 38.311 134.965 38.9833 134.965 39.7572ZM152.462 46.5188C151.123 46.5188 149.971 46.2477 149.005 45.7054C148.045 45.1575 147.305 44.3836 146.785 43.3837C146.265 42.3782 146.005 41.1891 146.005 39.8165C146.005 38.4777 146.265 37.3027 146.785 36.2916C147.305 35.2804 148.036 34.4924 148.98 33.9275C149.929 33.3626 151.041 33.0802 152.318 33.0802C153.177 33.0802 153.976 33.2186 154.716 33.4954C155.462 33.7665 156.111 34.1761 156.665 34.724C157.224 35.272 157.659 35.9611 157.97 36.7915C158.28 37.6162 158.436 38.5822 158.436 39.6894V40.6807H147.446V38.4438H155.038C155.038 37.9241 154.925 37.4637 154.699 37.0626C154.473 36.6616 154.16 36.3481 153.759 36.1221C153.363 35.8905 152.903 35.7747 152.377 35.7747C151.829 35.7747 151.344 35.9018 150.92 36.156C150.502 36.4046 150.174 36.7407 149.937 37.1643C149.7 37.5823 149.578 38.0484 149.573 38.5624V40.6892C149.573 41.3332 149.691 41.8896 149.929 42.3585C150.172 42.8273 150.513 43.1888 150.954 43.443C151.395 43.6972 151.917 43.8243 152.521 43.8243C152.923 43.8243 153.29 43.7678 153.623 43.6549C153.956 43.5419 154.242 43.3724 154.479 43.1465C154.716 42.9205 154.897 42.6437 155.021 42.3161L158.36 42.5364C158.19 43.3385 157.843 44.039 157.317 44.6378C156.798 45.2309 156.125 45.6941 155.301 46.0274C154.482 46.355 153.535 46.5188 152.462 46.5188Z" fill="#001241"/>
<rect x="370.385" width="310.548" height="212.361" rx="17.8956" fill="white"/>
<path d="M415.368 92.1014C414.752 92.1014 414.191 91.9514 413.682 91.6515C413.174 91.3464 412.767 90.9397 412.462 90.4313C412.162 89.9229 412.012 89.3611 412.012 88.746C412.012 88.1257 412.162 87.5639 412.462 87.0606C412.767 86.5522 413.174 86.148 413.682 85.8481C414.191 85.5431 414.752 85.3905 415.368 85.3905C415.988 85.3905 416.55 85.5431 417.053 85.8481C417.561 86.148 417.966 86.5522 418.265 87.0606C418.571 87.5639 418.723 88.1257 418.723 88.746C418.723 89.3611 418.571 89.9229 418.265 90.4313C417.966 90.9397 417.561 91.3464 417.053 91.6515C416.55 91.9514 415.988 92.1014 415.368 92.1014ZM443.227 79.3508H445.591V89.6229C445.591 90.716 445.335 91.6845 444.821 92.5284C444.308 93.3673 443.586 94.0282 442.655 94.5112C441.725 94.9891 440.634 95.228 439.384 95.228C438.138 95.228 437.05 94.9891 436.12 94.5112C435.189 94.0282 434.468 93.3673 433.954 92.5284C433.441 91.6845 433.184 90.716 433.184 89.6229V79.3508H435.54V89.4323C435.54 90.139 435.695 90.7668 436.005 91.3159C436.321 91.865 436.765 92.2971 437.34 92.6123C437.914 92.9224 438.596 93.0775 439.384 93.0775C440.177 93.0775 440.861 92.9224 441.435 92.6123C442.015 92.2971 442.457 91.865 442.762 91.3159C443.072 90.7668 443.227 90.139 443.227 89.4323V79.3508ZM457.612 86.115L455.545 86.481C455.459 86.2167 455.321 85.965 455.133 85.7261C454.95 85.4871 454.701 85.2914 454.386 85.1389C454.071 84.9864 453.677 84.9101 453.204 84.9101C452.558 84.9101 452.019 85.055 451.587 85.3448C451.155 85.6295 450.939 85.9981 450.939 86.4505C450.939 86.842 451.084 87.1572 451.374 87.3962C451.663 87.6351 452.131 87.8308 452.777 87.9834L454.638 88.4104C455.715 88.6595 456.519 89.0434 457.047 89.5619C457.576 90.0805 457.84 90.7541 457.84 91.5828C457.84 92.2844 457.637 92.9097 457.23 93.4588C456.829 94.0028 456.267 94.4298 455.545 94.74C454.828 95.0501 453.997 95.2052 453.051 95.2052C451.74 95.2052 450.67 94.9255 449.841 94.3663C449.012 93.802 448.504 93.0012 448.316 91.9641L450.52 91.6286C450.657 92.2031 450.939 92.6377 451.366 92.9326C451.793 93.2224 452.35 93.3673 453.036 93.3673C453.783 93.3673 454.381 93.2122 454.828 92.9021C455.276 92.5869 455.499 92.2031 455.499 91.7506C455.499 91.3845 455.362 91.077 455.087 90.8278C454.818 90.5787 454.404 90.3906 453.844 90.2635L451.862 89.8288C450.769 89.5797 449.96 89.1832 449.437 88.6392C448.918 88.0952 448.659 87.4063 448.659 86.5726C448.659 85.8811 448.852 85.2761 449.238 84.7576C449.625 84.239 450.159 83.8348 450.84 83.545C451.521 83.2502 452.301 83.1027 453.181 83.1027C454.447 83.1027 455.443 83.3773 456.17 83.9263C456.897 84.4703 457.378 85.1999 457.612 86.115ZM463.756 95.228C463.014 95.228 462.343 95.0908 461.743 94.8162C461.143 94.5366 460.668 94.1324 460.317 93.6037C459.971 93.075 459.798 92.4268 459.798 91.6591C459.798 90.9982 459.926 90.4542 460.18 90.0271C460.434 89.6001 460.777 89.262 461.209 89.0129C461.641 88.7638 462.124 88.5756 462.658 88.4485C463.192 88.3214 463.736 88.2249 464.29 88.1588C464.992 88.0774 465.561 88.0113 465.998 87.9605C466.436 87.9046 466.753 87.8156 466.952 87.6936C467.15 87.5716 467.249 87.3733 467.249 87.0987V87.0454C467.249 86.3794 467.061 85.8633 466.685 85.4973C466.314 85.1312 465.759 84.9482 465.022 84.9482C464.255 84.9482 463.65 85.1185 463.207 85.4592C462.77 85.7947 462.468 86.1684 462.3 86.5802L460.157 86.0921C460.411 85.3804 460.782 84.8059 461.27 84.3687C461.763 83.9263 462.33 83.6061 462.971 83.4078C463.611 83.2044 464.285 83.1027 464.992 83.1027C465.459 83.1027 465.955 83.1587 466.479 83.2705C467.008 83.3773 467.501 83.5756 467.958 83.8653C468.421 84.1551 468.8 84.5695 469.094 85.1084C469.389 85.6422 469.537 86.3362 469.537 87.1903V94.9688H467.31V93.3673H467.219C467.071 93.6622 466.85 93.952 466.555 94.2367C466.26 94.5214 465.881 94.7578 465.419 94.9459C464.956 95.134 464.402 95.228 463.756 95.228ZM464.252 93.3978C464.882 93.3978 465.421 93.2732 465.869 93.0241C466.321 92.775 466.664 92.4496 466.898 92.048C467.137 91.6413 467.257 91.2066 467.257 90.744V89.234C467.175 89.3154 467.018 89.3916 466.784 89.4628C466.555 89.5289 466.293 89.5874 465.998 89.6382C465.703 89.684 465.416 89.7272 465.137 89.7678C464.857 89.8034 464.623 89.8339 464.435 89.8594C463.993 89.9153 463.589 90.0093 463.222 90.1415C462.862 90.2737 462.572 90.4643 462.353 90.7135C462.14 90.9575 462.033 91.2829 462.033 91.6896C462.033 92.2539 462.241 92.681 462.658 92.9707C463.075 93.2554 463.606 93.3978 464.252 93.3978ZM472.757 94.9688V79.3508H475.037V85.1541H475.174C475.306 84.9101 475.497 84.6279 475.746 84.3076C475.995 83.9874 476.341 83.7077 476.783 83.4688C477.226 83.2248 477.81 83.1027 478.537 83.1027C479.483 83.1027 480.327 83.3417 481.069 83.8196C481.811 84.2975 482.394 84.9864 482.816 85.8862C483.243 86.7861 483.456 87.869 483.456 89.1349C483.456 90.4008 483.245 91.4862 482.823 92.3912C482.401 93.291 481.822 93.985 481.084 94.4731C480.347 94.956 479.506 95.1975 478.56 95.1975C477.848 95.1975 477.266 95.0781 476.814 94.8391C476.366 94.6002 476.016 94.3205 475.761 94.0003C475.507 93.68 475.312 93.3953 475.174 93.1461H474.984V94.9688H472.757ZM474.991 89.112C474.991 89.9356 475.111 90.6575 475.35 91.2778C475.589 91.898 475.934 92.3835 476.387 92.7343C476.839 93.0801 477.393 93.2529 478.049 93.2529C478.731 93.2529 479.3 93.0724 479.758 92.7115C480.215 92.3454 480.561 91.8497 480.795 91.2244C481.034 90.5991 481.153 89.8949 481.153 89.112C481.153 88.3392 481.036 87.6453 480.802 87.0301C480.573 86.415 480.228 85.9294 479.765 85.5736C479.308 85.2177 478.736 85.0397 478.049 85.0397C477.388 85.0397 476.829 85.2101 476.372 85.5507C475.919 85.8913 475.576 86.3667 475.342 86.9767C475.108 87.5868 474.991 88.2986 474.991 89.112ZM486.017 94.9688V83.2553H488.297V94.9688H486.017ZM487.168 81.4479C486.771 81.4479 486.431 81.3157 486.146 81.0514C485.867 80.7819 485.727 80.4616 485.727 80.0905C485.727 79.7143 485.867 79.394 486.146 79.1296C486.431 78.8602 486.771 78.7254 487.168 78.7254C487.565 78.7254 487.903 78.8602 488.182 79.1296C488.467 79.394 488.609 79.7143 488.609 80.0905C488.609 80.4616 488.467 80.7819 488.182 81.0514C487.903 81.3157 487.565 81.4479 487.168 81.4479ZM493.644 79.3508V94.9688H491.364V79.3508H493.644ZM496.712 94.9688V83.2553H498.992V94.9688H496.712ZM497.863 81.4479C497.467 81.4479 497.126 81.3157 496.842 81.0514C496.562 80.7819 496.422 80.4616 496.422 80.0905C496.422 79.7143 496.562 79.394 496.842 79.1296C497.126 78.8602 497.467 78.7254 497.863 78.7254C498.26 78.7254 498.598 78.8602 498.878 79.1296C499.162 79.394 499.305 79.7143 499.305 80.0905C499.305 80.4616 499.162 80.7819 498.878 81.0514C498.598 81.3157 498.26 81.4479 497.863 81.4479ZM507.527 83.2553V85.0855H501.129V83.2553H507.527ZM502.845 80.4489H505.125V91.5294C505.125 91.9717 505.191 92.3047 505.324 92.5284C505.456 92.7471 505.626 92.897 505.835 92.9784C506.048 93.0546 506.279 93.0928 506.528 93.0928C506.711 93.0928 506.872 93.0801 507.009 93.0546C507.146 93.0292 507.253 93.0089 507.329 92.9936L507.741 94.8772C507.609 94.9281 507.421 94.9789 507.177 95.0298C506.933 95.0857 506.628 95.1162 506.262 95.1213C505.662 95.1314 505.102 95.0247 504.584 94.801C504.065 94.5773 503.646 94.2316 503.326 93.7638C503.005 93.2961 502.845 92.7089 502.845 92.0022V80.4489ZM511.491 99.3613C511.15 99.3613 510.84 99.3333 510.561 99.2774C510.281 99.2266 510.073 99.1707 509.935 99.1097L510.484 97.2413C510.901 97.3531 511.272 97.4014 511.598 97.3862C511.923 97.3709 512.21 97.2489 512.46 97.0201C512.714 96.7914 512.937 96.4177 513.131 95.8991L513.413 95.1213L509.127 83.2553H511.567L514.534 92.3454H514.656L517.622 83.2553H520.07L515.243 96.5321C515.019 97.1422 514.735 97.6582 514.389 98.0801C514.043 98.5072 513.631 98.8275 513.154 99.041C512.676 99.2545 512.121 99.3613 511.491 99.3613ZM533.364 83.2553V85.0855H526.966V83.2553H533.364ZM528.682 80.4489H530.962V91.5294C530.962 91.9717 531.028 92.3047 531.16 92.5284C531.293 92.7471 531.463 92.897 531.671 92.9784C531.885 93.0546 532.116 93.0928 532.365 93.0928C532.548 93.0928 532.708 93.0801 532.846 93.0546C532.983 93.0292 533.09 93.0089 533.166 92.9936L533.578 94.8772C533.446 94.9281 533.257 94.9789 533.013 95.0298C532.769 95.0857 532.464 95.1162 532.098 95.1213C531.498 95.1314 530.939 95.0247 530.421 94.801C529.902 94.5773 529.483 94.2316 529.162 93.7638C528.842 93.2961 528.682 92.7089 528.682 92.0022V80.4489ZM540.809 95.2052C539.655 95.2052 538.661 94.9586 537.827 94.4654C536.999 93.9672 536.358 93.2682 535.906 92.3683C535.458 91.4633 535.235 90.4033 535.235 89.1883C535.235 87.9884 535.458 86.931 535.906 86.0159C536.358 85.1007 536.989 84.3864 537.797 83.873C538.61 83.3595 539.561 83.1027 540.649 83.1027C541.31 83.1027 541.95 83.212 542.571 83.4307C543.191 83.6493 543.748 83.9924 544.241 84.4602C544.734 84.9279 545.123 85.5354 545.408 86.2828C545.692 87.025 545.835 87.9274 545.835 88.99V89.7983H536.523V88.0901H543.6C543.6 87.4902 543.478 86.9589 543.234 86.4963C542.99 86.0286 542.647 85.66 542.205 85.3905C541.767 85.1211 541.254 84.9864 540.664 84.9864C540.024 84.9864 539.464 85.144 538.987 85.4592C538.514 85.7693 538.148 86.176 537.888 86.6793C537.634 87.1776 537.507 87.719 537.507 88.3037V89.6382C537.507 90.4211 537.644 91.0871 537.919 91.6362C538.198 92.1853 538.587 92.6047 539.086 92.8945C539.584 93.1792 540.166 93.3215 540.832 93.3215C541.264 93.3215 541.658 93.2605 542.014 93.1385C542.37 93.0114 542.677 92.8233 542.937 92.5742C543.196 92.3251 543.394 92.0175 543.532 91.6515L545.69 92.0404C545.517 92.6759 545.207 93.2326 544.759 93.7105C544.317 94.1833 543.76 94.5519 543.089 94.8162C542.423 95.0755 541.663 95.2052 540.809 95.2052ZM557.142 86.115L555.075 86.481C554.989 86.2167 554.852 85.965 554.664 85.7261C554.481 85.4871 554.231 85.2914 553.916 85.1389C553.601 84.9864 553.207 84.9101 552.734 84.9101C552.089 84.9101 551.55 85.055 551.118 85.3448C550.685 85.6295 550.469 85.9981 550.469 86.4505C550.469 86.842 550.614 87.1572 550.904 87.3962C551.194 87.6351 551.662 87.8308 552.307 87.9834L554.168 88.4104C555.246 88.6595 556.049 89.0434 556.578 89.5619C557.106 90.0805 557.371 90.7541 557.371 91.5828C557.371 92.2844 557.167 92.9097 556.761 93.4588C556.359 94.0028 555.797 94.4298 555.075 94.74C554.359 95.0501 553.527 95.2052 552.582 95.2052C551.27 95.2052 550.2 94.9255 549.371 94.3663C548.542 93.802 548.034 93.0012 547.846 91.9641L550.05 91.6286C550.187 92.2031 550.469 92.6377 550.896 92.9326C551.323 93.2224 551.88 93.3673 552.566 93.3673C553.314 93.3673 553.911 93.2122 554.359 92.9021C554.806 92.5869 555.03 92.2031 555.03 91.7506C555.03 91.3845 554.892 91.077 554.618 90.8278C554.348 90.5787 553.934 90.3906 553.375 90.2635L551.392 89.8288C550.299 89.5797 549.491 89.1832 548.967 88.6392C548.448 88.0952 548.189 87.4063 548.189 86.5726C548.189 85.8811 548.382 85.2761 548.769 84.7576C549.155 84.239 549.689 83.8348 550.37 83.545C551.051 83.2502 551.832 83.1027 552.711 83.1027C553.977 83.1027 554.974 83.3773 555.701 83.9263C556.428 84.4703 556.908 85.1999 557.142 86.115ZM565.346 83.2553V85.0855H558.947V83.2553H565.346ZM560.663 80.4489H562.943V91.5294C562.943 91.9717 563.01 92.3047 563.142 92.5284C563.274 92.7471 563.444 92.897 563.653 92.9784C563.866 93.0546 564.098 93.0928 564.347 93.0928C564.53 93.0928 564.69 93.0801 564.827 93.0546C564.964 93.0292 565.071 93.0089 565.147 92.9936L565.559 94.8772C565.427 94.9281 565.239 94.9789 564.995 95.0298C564.751 95.0857 564.446 95.1162 564.08 95.1213C563.48 95.1314 562.921 95.0247 562.402 94.801C561.883 94.5773 561.464 94.2316 561.144 93.7638C560.823 93.2961 560.663 92.7089 560.663 92.0022V80.4489ZM567.868 94.9688V83.2553H570.148V94.9688H567.868ZM569.019 81.4479C568.623 81.4479 568.282 81.3157 567.998 81.0514C567.718 80.7819 567.578 80.4616 567.578 80.0905C567.578 79.7143 567.718 79.394 567.998 79.1296C568.282 78.8602 568.623 78.7254 569.019 78.7254C569.416 78.7254 569.754 78.8602 570.034 79.1296C570.318 79.394 570.461 79.7143 570.461 80.0905C570.461 80.4616 570.318 80.7819 570.034 81.0514C569.754 81.3157 569.416 81.4479 569.019 81.4479ZM575.496 88.0139V94.9688H573.216V83.2553H575.404V85.1618H575.549C575.819 84.5415 576.241 84.0433 576.815 83.6671C577.395 83.2908 578.124 83.1027 579.004 83.1027C579.802 83.1027 580.501 83.2705 581.101 83.6061C581.701 83.9365 582.166 84.4297 582.496 85.0855C582.827 85.7413 582.992 86.5522 582.992 87.5182V94.9688H580.712V87.7927C580.712 86.9437 580.491 86.2802 580.049 85.8023C579.606 85.3194 578.999 85.0779 578.226 85.0779C577.697 85.0779 577.227 85.1923 576.815 85.421C576.408 85.6498 576.086 85.9854 575.847 86.4277C575.613 86.8649 575.496 87.3936 575.496 88.0139ZM590.961 99.6053C590.031 99.6053 589.23 99.4833 588.559 99.2393C587.893 98.9953 587.349 98.6724 586.927 98.2708C586.505 97.8692 586.19 97.4294 585.982 96.9515L587.941 96.1431C588.079 96.3668 588.262 96.6032 588.49 96.8524C588.724 97.1066 589.04 97.3226 589.436 97.5006C589.838 97.6785 590.354 97.7675 590.984 97.7675C591.848 97.7675 592.563 97.5565 593.127 97.1345C593.691 96.7176 593.974 96.0516 593.974 95.1365V92.8335H593.829C593.691 93.0826 593.493 93.3597 593.234 93.6647C592.98 93.9697 592.629 94.2341 592.181 94.4578C591.734 94.6815 591.152 94.7934 590.435 94.7934C589.51 94.7934 588.676 94.5773 587.934 94.1451C587.197 93.7079 586.612 93.0648 586.18 92.2158C585.753 91.3617 585.539 90.3118 585.539 89.0662C585.539 87.8207 585.75 86.753 586.172 85.8633C586.599 84.9736 587.184 84.2924 587.926 83.8196C588.668 83.3417 589.51 83.1027 590.45 83.1027C591.177 83.1027 591.765 83.2248 592.212 83.4688C592.659 83.7077 593.008 83.9874 593.257 84.3076C593.511 84.6279 593.707 84.9101 593.844 85.1541H594.012V83.2553H596.246V95.228C596.246 96.2347 596.012 97.0608 595.545 97.7065C595.077 98.3521 594.444 98.83 593.646 99.1402C592.853 99.4503 591.958 99.6053 590.961 99.6053ZM590.938 92.9021C591.594 92.9021 592.148 92.7496 592.601 92.4446C593.058 92.1344 593.404 91.6921 593.638 91.1176C593.877 90.5381 593.996 89.8441 593.996 89.0357C593.996 88.2477 593.88 87.5538 593.646 86.9539C593.412 86.3539 593.069 85.8862 592.616 85.5507C592.164 85.2101 591.604 85.0397 590.938 85.0397C590.252 85.0397 589.68 85.2177 589.223 85.5736C588.765 85.9243 588.419 86.4022 588.185 87.0072C587.957 87.6122 587.842 88.2884 587.842 89.0357C587.842 89.8034 587.959 90.4771 588.193 91.0566C588.427 91.6362 588.773 92.0887 589.23 92.4141C589.693 92.7394 590.262 92.9021 590.938 92.9021Z" fill="#1A2A51"/>
<path d="M418.414 31.9353V28.9104H432.666V31.9353H427.353V46.2637H423.726V31.9353H418.414ZM438.989 46.5179C437.65 46.5179 436.498 46.2467 435.532 45.7044C434.572 45.1565 433.832 44.3826 433.312 43.3827C432.792 42.3773 432.532 41.1882 432.532 39.8155C432.532 38.4767 432.792 37.3017 433.312 36.2906C433.832 35.2795 434.563 34.4914 435.507 33.9265C436.456 33.3617 437.568 33.0792 438.845 33.0792C439.704 33.0792 440.503 33.2176 441.243 33.4944C441.989 33.7656 442.638 34.1751 443.192 34.723C443.751 35.271 444.186 35.9601 444.497 36.7905C444.807 37.6153 444.963 38.5812 444.963 39.6884V40.6798H433.973V38.4428H441.565C441.565 37.9231 441.452 37.4627 441.226 37.0617C441 36.6606 440.687 36.3471 440.285 36.1211C439.89 35.8895 439.43 35.7737 438.904 35.7737C438.356 35.7737 437.871 35.9008 437.447 36.155C437.029 36.4036 436.701 36.7397 436.464 37.1633C436.227 37.5814 436.105 38.0474 436.1 38.5614V40.6882C436.1 41.3322 436.218 41.8886 436.456 42.3575C436.698 42.8263 437.04 43.1879 437.481 43.4421C437.921 43.6963 438.444 43.8234 439.048 43.8234C439.449 43.8234 439.817 43.7669 440.15 43.6539C440.483 43.5409 440.768 43.3715 441.006 43.1455C441.243 42.9195 441.424 42.6427 441.548 42.3151L444.886 42.5354C444.717 43.3376 444.37 44.038 443.844 44.6368C443.325 45.2299 442.652 45.6931 441.828 46.0264C441.008 46.3541 440.062 46.5179 438.989 46.5179ZM458.147 36.96L454.843 37.1633C454.786 36.8809 454.665 36.6267 454.478 36.4008C454.292 36.1691 454.046 35.9856 453.741 35.85C453.442 35.7088 453.083 35.6382 452.665 35.6382C452.106 35.6382 451.634 35.7568 451.25 35.994C450.866 36.2256 450.674 36.5363 450.674 36.9261C450.674 37.2368 450.798 37.4995 451.047 37.7141C451.295 37.9288 451.722 38.1011 452.326 38.231L454.682 38.7055C455.947 38.9653 456.89 39.3834 457.512 39.9595C458.133 40.5357 458.444 41.2927 458.444 42.2304C458.444 43.0834 458.192 43.8318 457.69 44.4758C457.192 45.1198 456.509 45.6225 455.639 45.9841C454.775 46.3399 453.778 46.5179 452.648 46.5179C450.925 46.5179 449.552 46.1592 448.53 45.4418C447.513 44.7187 446.917 43.7358 446.742 42.4931L450.292 42.3066C450.4 42.832 450.66 43.2331 451.072 43.5098C451.484 43.781 452.012 43.9166 452.656 43.9166C453.289 43.9166 453.798 43.7951 454.182 43.5522C454.571 43.3037 454.769 42.9845 454.775 42.5947C454.769 42.2671 454.631 41.9988 454.36 41.7898C454.088 41.5751 453.67 41.4113 453.106 41.2983L450.852 40.8492C449.581 40.595 448.634 40.1544 448.013 39.5274C447.397 38.9004 447.09 38.1011 447.09 37.1295C447.09 36.2934 447.315 35.5732 447.767 34.9688C448.225 34.3643 448.866 33.8983 449.691 33.5707C450.521 33.243 451.493 33.0792 452.606 33.0792C454.249 33.0792 455.543 33.4266 456.486 34.1214C457.435 34.8162 457.989 35.7624 458.147 36.96ZM467.639 33.2487V35.9601H459.802V33.2487H467.639ZM461.581 30.1305H465.191V42.2643C465.191 42.5976 465.241 42.8574 465.343 43.0438C465.445 43.2246 465.586 43.3517 465.767 43.4251C465.953 43.4986 466.168 43.5353 466.411 43.5353C466.58 43.5353 466.75 43.5211 466.919 43.4929C467.089 43.459 467.219 43.4336 467.309 43.4166L467.877 46.1027C467.696 46.1592 467.442 46.2241 467.114 46.2976C466.786 46.3766 466.388 46.4247 465.919 46.4416C465.049 46.4755 464.287 46.3597 463.632 46.0942C462.982 45.8287 462.476 45.4163 462.115 44.8571C461.753 44.2979 461.575 43.5918 461.581 42.7388V30.1305Z" fill="#001241"/>
</svg>
